<svg version="1.1" xmlns="http://www.w3.org/2000/svg" viewBox="-66.000001 -53.99171624879857 132.000002 158.88480499118842" fill="none" stroke="black" stroke-width="0.6%" vector-effect="non-scaling-stroke">
    <path d="M -45.96194 3.43715 A 65 49.19283 360 0 1 3.65394 -10.8933" />
    <path d="M 14.64128 -9.70688 A 65 49.19283 360 0 1 65 38.22174 A 65 49.19283 360 0 1 -65 38.22174 A 65 49.19283 360 0 1 -45.96194 3.43715" />
    <path d="M -65 53.9089 A 65 49.19283 180 0 0 65 53.9089" />
    <path d="M -20.14214 27.51879 A 6 4.54088 180 0 0 -8.14214 27.51879" />
    <path d="M -20.06929 25.70878 L -27.93072 19.75915 L -27.93072 18.45189 L -19.72127 24.6649" />
    <path d="M 17.32412 33.13784 L 13.08148 36.34872 L 13.08148 33.7342 L 11.31371 -23.816 A 5 2.31094 232.8811 0 1 10.79553 -22.50482" />
    <path d="M 2.47487 28.32151 L 13.08148 36.34872" />
    <path d="M 20.85223 27.41618 A 5 3.78406 180 0 0 21.26346 25.91335" />
    <path d="M 17.32412 33.13784 L 20.85223 27.41618 L 20.85223 26.10892 A 5 3.78406 180 0 0 21.26346 24.60608 L 21.26346 25.91335" />
    <path d="M -24.39518 15.77615 L -16.28928 21.9108" />
    <path d="M -27.93072 18.45189 L -24.39518 15.77615" />
    <path d="M -8.14214 26.47298 A 6 4.54088 360 0 1 -20.14214 26.47298 L -20.14214 27.51879" />
    <path d="M -19.72158 24.66553 Q -19.72 24.67 -19.72127 24.6649" />
    <path d="M 15.9099 32.90087 L 15.9099 31.59361 L 14.14214 -25.95659 L 11.31371 -23.816" />
    <path d="M 15.9099 32.90087 L 17.32412 31.83057 L 20.85223 26.10892" />
    <path d="M 17.32412 33.13784 L 17.32412 31.83057" />
    <path d="M 15.9099 31.59361 L 13.08148 33.7342" />
    <path d="M 2.47487 25.70698 L 2.47487 28.32151" />
    <path d="M 3.81748 -15.96963 L 2.47487 25.70698" />
    <path d="M 21.26346 24.60608 A 5 3.78406 180 0 0 15.79702 20.83852" />
    <path d="M -35.09269 95.31633 A 60 45.40877 180 0 0 35.09269 95.31633" />
    <path d="M -17.39483 23.09622 A 4.6 3.48134 360 1 1 -18.17902 23.88885 A 4.6 3.48134 360 0 1 -17.39483 23.09622 Z" />
    <path d="M -19.71852 24.65923 A 5.94164 4.49671 180 0 0 -19.72127 24.6649" />
    <path d="M 14.14214 -25.95659 A 5 2.31094 52.8811 0 0 13.40938 -28.50327" />
    <path d="M 9.88822 -32.37599 A 5 2.31094 52.8811 0 0 7.58925 -32.61925" />
    <path d="M 16.34321 25.83278 C 16.4 25.78 16.45 25.74 16.50892 25.687 C 16.56 25.64 16.62 25.59 16.67393 25.54082 C 16.73 25.49 16.78 25.44 16.83827 25.39428 C 16.89 25.35 16.95 25.3 17.00199 25.24746 C 17.07 25.18 17.15 25.12 17.21874 25.05191 C 17.29 24.99 17.36 24.92 17.43455 24.85606 C 17.51 24.79 17.58 24.73 17.64949 24.66004 C 17.72 24.59 17.79 24.53 17.86363 24.46396 L 10.59287 11.70894" />
    <path d="M 17.09924 31.02785 A 2.25 1.70283 0 0 1 15.9099 32.52961" />
    <path d="M -12.44508 26.84225 A 2.4 1.81635 360 0 1 -16.24833 24.68709 A 2.4 1.81635 360 1 1 -12.44508 26.84225 Z" />
    <path d="M 15.72387 25.53715 A 2.25 1.70283 0 0 1 17.09924 27.10606 L 17.09924 31.02785" />
    <path d="M 17.09924 27.10606 A 2.25 1.70283 0 0 1 15.81925 28.64252" />
    <path d="M -15.13543 26.48803 A 1.05836 0.80098 360 1 1 -13.14884 26.48803 C -13.15 26.49 -13.15 26.49 -13.1513 26.49287 C -13.15 26.49 -13.15 26.5 -13.15431 26.49839 C -13.16 26.5 -13.16 26.5 -13.15793 26.50459 C -13.16 26.51 -13.16 26.51 -13.16224 26.51148 C -13.16 26.51 -13.17 26.52 -13.16731 26.51905 C -13.17 26.52 -13.17 26.52 -13.17321 26.5273 C -13.18 26.53 -13.18 26.53 -13.18 26.53621 C -13.18 26.54 -13.18 26.54 -13.18774 26.54576 C -13.19 26.55 -13.19 26.55 -13.19649 26.55593 C -13.2 26.56 -13.2 26.56 -13.2063 26.56669 C -13.21 26.57 -13.21 26.57 -13.21722 26.57799 C -13.22 26.58 -13.23 26.59 -13.2293 26.5898 C -13.23 26.59 -13.24 26.6 -13.24257 26.60206 C -13.25 26.61 -13.25 26.61 -13.25708 26.61472 C -13.26 26.62 -13.27 26.62 -13.27286 26.62772 C -13.28 26.63 -13.28 26.64 -13.28994 26.64099" />
    <path d="M 1.64378 -17.14354 A 4 1.84875 52.8811 0 0 1.68362 -17.36395" />
    <path d="M -2.66194 -23.10588 A 4 1.84875 52.8811 0 0 -2.88489 -23.12741" />
    <path d="M 1.17888 -15.22681 A 5 2.31094 52.8811 0 0 -4.85583 -23.20066 L -7.9671 -20.84601 A 5 2.31094 232.8811 1 1 -1.93239 -12.87216 A 5 2.31094 232.8811 0 1 -8.48528 -19.53482 A 5 2.31094 232.8811 0 1 -7.9671 -20.84601" />
    <path d="M 5.38859 -17.15868 A 6 2.77312 52.8811 0 0 5.2271 -21.59538 L 20.82855 -34.76692" />
    <path d="M 1.97987 -25.69935 A 6 2.77312 52.8811 0 0 -1.85306 -26.7273" />
    <path d="M 1.69157 -18.91964 L 20.62962 -34.90812" />
    <path d="M 1.69157 -18.91964 L 5.2271 -21.59538" />
    <path d="M -5.48864 -12.85773 L -4.77343 -13.46155" />
    <path d="M 1.69157 -18.91964 A 6 2.77312 232.8811 0 1 1.85306 -14.48294 L 5.38859 -17.15868" />
    <path d="M 1.85306 -14.48294 A 6 2.77312 232.8811 0 1 0.02728 -14.35526" />
    <path d="M 17.4543 -38.76366 L -1.37029 -22.87098" />
    <path d="M -6.00744 -22.32911 A 6 2.77312 232.8811 0 1 -5.38859 -24.05156 L -1.85306 -26.7273" />
    <path d="M -5.38859 -24.05156 A 6 2.77312 232.8811 0 1 -1.37029 -22.87098" />
    <path d="M -7.92232 -17.33942 L -8.55051 -16.80907" />
    <path d="M -5.48864 -12.85773 A 2.75 1.27102 232.8811 0 1 -5.76508 -12.29863 L -4.70442 -13.10135 A 2.75 1.27102 52.8811 0 0 -4.53496 -13.29958" />
    <path d="M -5.76508 -12.29863 A 2.75 1.27102 232.8811 0 1 -9.08417 -16.68425 L -8.02351 -17.48697" />
    <path d="M -9.08417 -16.68425 A 2.75 1.27102 232.8811 0 1 -8.55051 -16.80907" />
    <path d="M -4.81992 -23.22668 A 5 2.31094 232.8811 0 1 -4.78512 -23.25417 A 5 2.31094 232.8811 0 1 1.24959 -15.28032 A 5 2.31094 232.8811 0 1 1.21368 -15.2543" />
    <path d="M -5.48864 -12.85773 L -4.73065 -13.43139" />
    <path d="M -7.99629 -17.50638 A 2.75 1.27102 52.8811 0 0 -8.02351 -17.48697" />
    <path d="M -4.39896 -23.40518 A 5 2.31094 232.8811 0 1 -4.37551 -23.44767" />
    <path d="M 1.54708 -15.62197 A 5 2.31094 232.8811 0 1 1.49982 -15.61095" />
    <path d="M -65 38.22174 L -65 53.9089" />
    <path d="M 65 38.22174 L 65 53.9089" />
    <path d="M -8.14214 26.47298 L -8.14214 27.51879" />
    <path d="M -18.23969 22.89496 C -18.17 22.84 -18.1 22.79 -18.02696 22.74155 C -17.95 22.69 -17.88 22.64 -17.80592 22.5969 C -17.73 22.55 -17.65 22.5 -17.57706 22.46123 C -17.5 22.42 -17.42 22.38 -17.3409 22.33477 C -17.26 22.29 -17.18 22.26 -17.09795 22.21771 C -17.02 22.18 -16.93 22.14 -16.84874 22.11022 C -16.76 22.08 -16.68 22.04 -16.5938 22.01248 C -16.51 21.98 -16.42 21.95 -16.33367 21.92464 C -16.25 21.9 -16.16 21.87 -16.06889 21.84684 C -15.98 21.82 -15.89 21.8 -15.80004 21.7792 C -15.71 21.76 -15.62 21.74 -15.52767 21.72182 C -15.44 21.7 -15.34 21.69 -15.25236 21.6748 C -15.16 21.66 -15.07 21.65 -14.97469 21.63822 C -14.88 21.63 -14.79 21.62 -14.69525 21.61214 C -14.6 21.61 -14.51 21.6 -14.41465 21.5966 C -14.32 21.59 -14.23 21.59 -14.13348 21.59165 C -14.04 21.59 -13.95 21.59 -13.85153 21.59728 C -13.76 21.6 -13.66 21.61 -13.57018 21.61356 C -13.48 21.62 -13.38 21.63 -13.29005 21.64044 C -13.2 21.65 -13.1 21.66 -13.01174 21.67788 C -12.92 21.69 -12.83 21.71 -12.73585 21.72581 C -12.64 21.74 -12.55 21.76 -12.46295 21.78415 C -12.37 21.81 -12.28 21.83 -12.19364 21.8528 C -12.1 21.88 -12.02 21.9 -11.92848 21.93167 C -11.84 21.96 -11.75 21.99 -11.66803 22.02061 C -11.58 22.05 -11.5 22.08 -11.41285 22.1195 C -11.33 22.15 -11.25 22.19 -11.16347 22.22818 C -11.08 22.27 -11 22.31 -10.92045 22.34648 C -10.6 22.51 -10.3 22.7 -10.0223 22.91191 C -9.26 23.46 -8.2 24.63 -8.14214 26.47298" />
    <path d="M -19.71852 24.65923 C -19.7 24.62 -19.68 24.57 -19.65455 24.53279 C -19.63 24.49 -19.61 24.45 -19.58639 24.40813 C -19.56 24.37 -19.54 24.33 -19.51413 24.28535 C -19.49 24.24 -19.46 24.2 -19.43785 24.16453 C -19.41 24.12 -19.39 24.09 -19.35763 24.04576 C -19.33 24.01 -19.3 23.97 -19.27356 23.92912 C -19.24 23.89 -19.22 23.85 -19.18571 23.81469 C -19.16 23.78 -19.13 23.74 -19.09418 23.70253 C -19.06 23.67 -19.03 23.63 -18.99905 23.59272 C -18.97 23.56 -18.93 23.52 -18.9004 23.48532 C -18.87 23.45 -18.83 23.41 -18.79832 23.3804 C -18.76 23.35 -18.73 23.31 -18.69291 23.27802 C -18.66 23.24 -18.62 23.21 -18.58425 23.17824 C -18.55 23.15 -18.51 23.11 -18.47243 23.0811 C -18.43 23.05 -18.4 23.02 -18.35754 22.98666 C -18.32 22.96 -18.28 22.93 -18.23969 22.89496" />
    <path d="M -19.72158 24.66553 C -19.74 24.7 -19.76 24.74 -19.7716 24.77254 C -19.79 24.81 -19.8 24.84 -19.81862 24.88067 C -19.83 24.92 -19.85 24.95 -19.86259 24.98986 C -19.88 25.03 -19.89 25.06 -19.90347 25.10002 C -19.92 25.14 -19.93 25.17 -19.94121 25.21111 C -19.95 25.25 -19.96 25.29 -19.9758 25.32305 C -19.99 25.36 -20 25.4 -20.00719 25.43577 C -20.02 25.47 -20.03 25.51 -20.03537 25.5492 C -20.04 25.59 -20.05 25.63 -20.06029 25.66326 C -20.07 25.7 -20.08 25.74 -20.08194 25.77788 C -20.09 25.82 -20.09 25.85 -20.10029 25.89299 C -20.11 25.93 -20.11 25.97 -20.11533 26.0085 C -20.12 26.05 -20.12 26.09 -20.12705 26.12433 C -20.13 26.16 -20.13 26.2 -20.13543 26.24042 C -20.14 26.28 -20.14 26.32 -20.14046 26.35666 C -20.14 26.4 -20.14 26.43 -20.14214 26.47298" />
    <path d="M 6.00744 -18.88112 L 10.79553 -22.50482" />
    <path d="M -0.02728 -26.85497 L 7.58925 -32.61925" />
    <path d="M -15.13543 26.48803 C -15.13 26.49 -15.13 26.49 -15.13302 26.49281 C -15.13 26.49 -15.13 26.5 -15.13006 26.49824 C -15.13 26.5 -15.13 26.5 -15.1265 26.50434 C -15.13 26.51 -15.12 26.51 -15.12227 26.5111 C -15.12 26.51 -15.12 26.52 -15.11731 26.51853 C -15.12 26.52 -15.11 26.52 -15.11155 26.52662 C -15.11 26.53 -15.11 26.53 -15.10493 26.53536 C -15.1 26.54 -15.1 26.54 -15.09739 26.54473 C -15.1 26.55 -15.09 26.55 -15.08987 26.55356 C -15.09 26.56 -15.08 26.56 -15.08155 26.56284 C -15.08 26.57 -15.08 26.57 -15.07238 26.57256 C -15.07 26.58 -15.07 26.58 -15.06234 26.58269 C -15.06 26.59 -15.06 26.59 -15.05139 26.59318 C -15.05 26.6 -15.04 26.6 -15.03951 26.60401 C -15.04 26.61 -15.03 26.61 -15.02668 26.61513 C -15.02 26.62 -15.02 26.62 -15.01288 26.62652 C -15.01 26.63 -15 26.63 -14.99809 26.63813 C -14.99 26.64 -14.99 26.65 -14.98231 26.64992 C -14.98 26.65 -14.97 26.66 -14.96553 26.66184 C -14.96 26.67 -14.95 26.67 -14.94774 26.67386 C -14.94 26.68 -14.94 26.68 -14.92896 26.68593 C -14.92 26.69 -14.92 26.69 -14.90918 26.698 C -14.9 26.7 -14.9 26.71 -14.88842 26.71002 C -14.88 26.71 -14.87 26.72 -14.86669 26.72194 C -14.85 26.73 -14.84 26.74 -14.82052 26.74532 C -14.8 26.75 -14.79 26.76 -14.77064 26.76784 C -14.74 26.78 -14.7 26.8 -14.66087 26.80904 C -14.58 26.83 -14.5 26.86 -14.41 26.8688 C -14.23 26.9 -14.04 26.9 -13.86157 26.86677 C -13.61 26.83 -13.4 26.73 -13.28994 26.64099" />
    <path d="M 1.17888 -15.22681 L -1.93239 -12.87216" />
    <path d="M 34.42106 -49.1169 A 9.999999999999998 9.999999999999998 0 0 0 17.19196 -46.6046 A 9.999999999999998 9.999999999999998 0 1 0 34.42106 -49.1169 Z" />
</svg>