<svg version="1.1" xmlns="http://www.w3.org/2000/svg" viewBox="-66.000001 -52.132112219148496 132.000002 163.0941777605058" fill="none" stroke="black" stroke-width="0.6%" vector-effect="non-scaling-stroke">
    <path d="M -45.96194 11.2314 A 65 47.62124 360 0 1 3.56333 -2.64493" />
    <path d="M 14.7347 -1.47684 A 65 47.62124 360 0 1 65 44.9047 A 65 47.62124 360 0 1 -65 44.9047 A 65 47.62124 360 0 1 -45.96194 11.2314" />
    <path d="M -65 61.23964 A 65 47.62124 180 0 0 65 61.23964" />
    <path d="M -15.89949 37.65199 A 6 4.39581 180 0 0 -3.89949 37.65199" />
    <path d="M 17.32412 39.98322 L 13.08148 43.09153 L 13.08148 40.36904 L 11.31371 -19.45961 A 5 2.40636 233.77221 0 1 10.73316 -18.01649" />
    <path d="M 2.47487 35.32076 L 13.08148 43.09153" />
    <path d="M 20.85223 34.44436 A 5 3.66317 180 0 0 21.26346 32.98954" />
    <path d="M 17.32412 39.98322 L 20.85223 34.44436 L 20.85223 33.08311 A 5 3.66317 180 0 0 21.26346 31.62829 A 5 3.66317 180 0 0 15.99312 27.97048" />
    <path d="M -3.89949 36.563 A 6 4.39581 360 0 1 -15.89949 36.563 L -15.89949 37.65199" />
    <path d="M 15.9099 39.65808 L 15.9099 38.29683 L 14.14214 -21.53181 L 11.31371 -19.45961" />
    <path d="M 15.9099 39.65808 L 17.32412 38.62198 L 20.85223 33.08311" />
    <path d="M 17.32412 39.98322 L 17.32412 38.62198" />
    <path d="M 15.9099 38.29683 L 13.08148 40.36904" />
    <path d="M 2.47487 32.59827 L 2.47487 35.32076" />
    <path d="M 3.84391 -11.72953 L 2.47487 32.59827" />
    <path d="M -39.90867 98.82813 A 60 43.95807 180 0 0 39.90867 98.82813" />
    <path d="M -13.15219 33.22709 A 4.6 3.37012 360 1 1 -13.93637 33.9944 A 4.6 3.37012 360 0 1 -13.15219 33.22709 Z" />
    <path d="M 14.14214 -21.53181 A 5 2.40636 53.77221 0 0 13.05175 -24.78869" />
    <path d="M 8.83231 -28.36552 A 5 2.40636 53.77221 0 0 7.65162 -28.15543" />
    <path d="M 16.52486 32.66105 C 16.6 32.59 16.68 32.52 16.7641 32.45543 C 16.84 32.39 16.92 32.32 17.00199 32.24917 C 17.07 32.19 17.15 32.12 17.21874 32.05987 C 17.29 32 17.36 31.93 17.43455 31.87028 C 17.51 31.81 17.58 31.74 17.64949 31.68053 C 17.72 31.62 17.79 31.55 17.86363 31.4907 L 10.59287 17.8074" />
    <path d="M 17.09924 37.8449 A 2.25 1.64843 360 0 1 15.9099 39.29868" />
    <path d="M -8.20244 36.85345 A 2.4 1.75832 360 0 1 -12.00569 34.76714 A 2.4 1.75832 360 1 1 -8.20244 36.85345 Z" />
    <path d="M 15.73108 32.24462 A 2.25 1.64843 360 0 1 17.09924 33.76117 L 17.09924 37.8449" />
    <path d="M 17.09924 33.76117 A 2.25 1.64843 360 0 1 15.81983 35.24834" />
    <path d="M -10.6066 35.09207 A 1 0.73263 360 0 1 -8.89949 35.61013 L -8.89949 36.54432" />
    <path d="M -8.89949 35.61013 A 1 0.73263 360 0 1 -10.89949 35.61013 L -10.89949 36.54433" />
    <path d="M -10.89949 35.61013 A 1 0.73263 360 0 1 -10.6066 35.09207" />
    <path d="M 1.65106 -12.99494 A 4 1.92509 53.77221 0 0 1.68824 -13.24191" />
    <path d="M -2.45584 -18.89832 A 4 1.92509 53.77221 0 0 -2.70253 -18.93732" />
    <path d="M 1.11651 -10.971 A 5 2.40636 53.77221 0 0 -4.79346 -19.03774 L -7.90473 -16.75832 A 5 2.40636 233.77221 0 1 -1.99476 -8.69158 A 5 2.40636 233.77221 0 1 -8.48528 -15.3152 A 5 2.40636 233.77221 0 1 -7.90473 -16.75832" />
    <path d="M 5.31375 -12.80639 A 6 2.88764 53.77221 0 0 5.2271 -17.47622 L 21.36718 -32.55981" />
    <path d="M 1.74781 -21.74474 A 6 2.88764 53.77221 0 0 -1.77822 -22.48647" />
    <path d="M 1.69157 -14.88596 L 20.91321 -32.84941" />
    <path d="M 1.69157 -14.88596 L 5.2271 -17.47622" />
    <path d="M -5.48864 -8.17574 L -4.55139 -9.05165" />
    <path d="M 1.69157 -14.88596 A 6 2.88764 233.77221 0 1 1.77822 -10.21613 L 5.31375 -12.80639" />
    <path d="M 1.77822 -10.21613 A 6 2.88764 233.77221 0 1 -0.1004 -10.07946" />
    <path d="M 17.61574 -36.574 L -1.37029 -18.83074" />
    <path d="M -6.01037 -18.14619 A 6 2.88764 233.77221 0 1 -5.31375 -19.89622 L -1.77822 -22.48647" />
    <path d="M -5.31375 -19.89622 A 6 2.88764 233.77221 0 1 -1.37029 -18.83074" />
    <path d="M -7.80748 -12.81492 L -8.55051 -12.12053" />
    <path d="M -5.48864 -8.17574 A 2.75 1.3235 233.77221 0 1 -5.79938 -7.55125 L -4.73872 -8.32833 A 2.75 1.3235 53.77221 0 0 -4.42798 -8.95282" />
    <path d="M -5.79938 -7.55125 A 2.75 1.3235 233.77221 0 1 -9.04986 -11.98796 L -7.9892 -12.76503" />
    <path d="M -9.04986 -11.98796 A 2.75 1.3235 233.77221 0 1 -8.55051 -12.12053" />
    <path d="M -4.75762 -19.06297 A 5 2.40636 233.77221 0 1 -4.72275 -19.08954 A 5 2.40636 233.77221 1 1 1.18722 -11.02281 A 5 2.40636 233.77221 0 1 1.15137 -10.99757" />
    <path d="M -4.40187 -8.96155 L -4.42922 -8.94152" />
    <path d="M -5.48864 -8.17574 L -4.42798 -8.95282" />
    <path d="M -7.82546 -12.85206 A 2.75 1.3235 53.77221 0 0 -7.9892 -12.76503" />
    <path d="M -4.34464 -19.24089 A 5 2.40636 233.77221 0 1 -4.31977 -19.2811" />
    <path d="M 1.49134 -11.3493 A 5 2.40636 233.77221 0 1 1.4455 -11.33771" />
    <path d="M -65 44.9047 L -65 61.23964" />
    <path d="M 65 44.9047 L 65 61.23964" />
    <path d="M -3.89949 36.563 L -3.89949 37.65199" />
    <path d="M 21.26346 31.62829 L 21.26346 32.98954" />
    <path d="M -3.89949 36.563 C -3.9 36.51 -3.9 36.46 -3.90228 36.41597 C -3.9 36.37 -3.91 36.32 -3.91066 36.2691 C -3.91 36.22 -3.92 36.17 -3.92461 36.1226 C -3.93 36.07 -3.94 36.03 -3.94411 35.97662 C -3.95 35.93 -3.96 35.88 -3.96912 35.83136 C -3.98 35.78 -3.99 35.73 -3.99958 35.68699 C -4.01 35.64 -4.02 35.59 -4.03546 35.54366 C -4.05 35.5 -4.06 35.45 -4.07667 35.40153 C -4.09 35.35 -4.11 35.31 -4.12317 35.26077 C -4.14 35.21 -4.16 35.17 -4.17488 35.12151 C -4.19 35.08 -4.21 35.03 -4.23172 34.9839 C -4.25 34.94 -4.27 34.89 -4.29359 34.84808 C -4.32 34.8 -4.34 34.76 -4.36041 34.71416 C -4.38 34.67 -4.41 34.63 -4.43208 34.58229 C -4.46 34.54 -4.48 34.5 -4.50849 34.45256 C -4.53 34.41 -4.56 34.37 -4.58953 34.32511 C -4.61 34.29 -4.64 34.26 -4.65939 34.22234 C -4.68 34.19 -4.71 34.15 -4.73224 34.12121 C -4.76 34.09 -4.78 34.05 -4.80803 34.02178 C -4.83 33.99 -4.86 33.96 -4.88669 33.92408 C -4.91 33.89 -4.94 33.86 -4.96817 33.82816 C -5 33.8 -5.02 33.77 -5.05241 33.73406 C -5.08 33.7 -5.11 33.67 -5.13934 33.64183 C -5.17 33.61 -5.2 33.58 -5.22891 33.5515 C -5.26 33.52 -5.29 33.49 -5.32105 33.46312 C -5.35 33.43 -5.38 33.41 -5.4157 33.37671 C -5.45 33.35 -5.48 33.32 -5.51281 33.29231 C -5.55 33.26 -5.58 33.24 -5.61231 33.20995 C -5.75 33.1 -5.89 33 -6.03296 32.90155 C -8.02 31.49 -11.61 31.32 -13.97958 33.05062" />
    <path d="M -15.89949 36.563 C -15.9 36.53 -15.9 36.49 -15.89809 36.45874 C -15.9 36.42 -15.9 36.39 -15.89388 36.35453 C -15.89 36.32 -15.89 36.29 -15.88686 36.25046 C -15.88 36.22 -15.88 36.18 -15.87704 36.14658 C -15.87 36.11 -15.87 36.08 -15.86443 36.04295 C -15.86 36.01 -15.85 35.97 -15.84905 35.93964 C -15.84 35.91 -15.84 35.87 -15.8309 35.83671 C -15.82 35.8 -15.82 35.77 -15.81 35.73422 C -15.8 35.7 -15.79 35.67 -15.78638 35.63223 C -15.78 35.6 -15.77 35.56 -15.76004 35.53079 C -15.75 35.5 -15.74 35.46 -15.73102 35.42997 C -15.72 35.4 -15.71 35.36 -15.69934 35.32981 C -15.69 35.3 -15.68 35.26 -15.66501 35.23038 C -15.65 35.2 -15.64 35.16 -15.62808 35.13172 C -15.62 35.1 -15.6 35.07 -15.58858 35.03388 C -15.57 35 -15.56 34.97 -15.54653 34.93693 C -15.53 34.89 -15.5 34.85 -15.48235 34.80052 C -15.46 34.76 -15.44 34.71 -15.41317 34.66613 C -15.39 34.62 -15.36 34.58 -15.33909 34.53385 C -15.31 34.49 -15.29 34.45 -15.26021 34.4038 C -15.23 34.36 -15.21 34.32 -15.17664 34.27609 C -15.15 34.23 -15.12 34.19 -15.0885 34.15081 C -15.06 34.11 -15.03 34.07 -14.99588 34.02807 C -14.96 33.99 -14.93 33.95 -14.8989 33.90795 C -14.87 33.87 -14.83 33.83 -14.79767 33.79054 C -14.76 33.75 -14.73 33.71 -14.69231 33.67592 C -14.66 33.64 -14.62 33.6 -14.58292 33.56416 C -14.55 33.53 -14.51 33.49 -14.46961 33.45534 C -14.39 33.38 -14.31 33.31 -14.23173 33.24675 C -14.15 33.18 -14.07 33.11 -13.97958 33.05062" />
    <path d="M 6.01037 -14.55641 L 10.73316 -18.01649" />
    <path d="M 0.1004 -22.62315 L 7.65162 -28.15543" />
    <path d="M -9.02983 36.67698 C -9.04 36.68 -9.04 36.69 -9.05304 36.69337 C -9.06 36.7 -9.07 36.7 -9.07846 36.71009 C -9.09 36.72 -9.1 36.72 -9.10606 36.72696 C -9.12 36.73 -9.13 36.74 -9.1358 36.74384 C -9.15 36.75 -9.16 36.76 -9.16764 36.76059 C -9.18 36.77 -9.19 36.77 -9.20151 36.77706 C -9.21 36.78 -9.23 36.79 -9.23734 36.79313 C -9.25 36.8 -9.26 36.8 -9.27505 36.80868 C -9.29 36.81 -9.3 36.82 -9.31454 36.82358 C -9.33 36.83 -9.34 36.83 -9.35572 36.83774 C -9.37 36.84 -9.38 36.85 -9.39847 36.85106 C -9.41 36.86 -9.43 36.86 -9.44268 36.86343 C -9.46 36.87 -9.47 36.87 -9.48821 36.87477 C -9.5 36.88 -9.52 36.88 -9.53492 36.88501 C -9.55 36.89 -9.57 36.89 -9.58267 36.89407 C -9.6 36.9 -9.61 36.9 -9.63128 36.90189 C -9.65 36.9 -9.67 36.91 -9.69006 36.90953 C -9.71 36.91 -9.73 36.91 -9.74971 36.91531 C -9.77 36.92 -9.79 36.92 -9.80998 36.91918 C -9.83 36.92 -9.85 36.92 -9.87061 36.9211 C -9.89 36.92 -9.91 36.92 -9.93136 36.92105 C -9.95 36.92 -9.97 36.92 -9.99196 36.91904 C -10.01 36.92 -10.03 36.92 -10.05219 36.91508 C -10.07 36.91 -10.09 36.91 -10.11179 36.90921 C -10.13 36.91 -10.15 36.9 -10.17054 36.90147 C -10.19 36.9 -10.21 36.9 -10.22819 36.89194 C -10.25 36.89 -10.27 36.88 -10.28451 36.88069 C -10.3 36.88 -10.32 36.87 -10.33928 36.86783 C -10.41 36.85 -10.48 36.83 -10.53835 36.80289 C -10.86 36.66 -10.91 36.52 -10.90289 36.53721 C -10.9 36.54 -10.9 36.54 -10.90271 36.53776 C -10.9 36.54 -10.9 36.54 -10.90225 36.53936 C -10.9 36.54 -10.9 36.54 -10.90164 36.54186 C -10.9 36.54 -10.9 36.54 -10.90099 36.54514 C -10.9 36.55 -10.9 36.55 -10.90039 36.54904 C -10.9 36.55 -10.9 36.55 -10.89991 36.55342 C -10.9 36.55 -10.9 36.56 -10.8996 36.55813 C -10.9 36.56 -10.9 36.56 -10.89949 36.563" />
    <path d="M -8.89949 36.563 C -8.9 36.56 -8.9 36.56 -8.89939 36.55813 C -8.9 36.56 -8.9 36.55 -8.89908 36.55342 C -8.9 36.55 -8.9 36.55 -8.8986 36.54904 C -8.9 36.55 -8.9 36.55 -8.898 36.54514 C -8.9 36.54 -8.9 36.54 -8.89735 36.54186 C -8.9 36.54 -8.9 36.54 -8.89674 36.53936 C -8.9 36.54 -8.9 36.54 -8.89628 36.53776 C -8.9 36.54 -8.9 36.54 -8.8961 36.53721 C -8.9 36.54 -8.9 36.54 -8.89629 36.5377 C -8.9 36.54 -8.9 36.54 -8.89695 36.53922 C -8.9 36.54 -8.9 36.54 -8.8982 36.54182 C -8.9 36.54 -8.9 36.54 -8.90018 36.54557 C -8.9 36.55 -8.9 36.55 -8.90302 36.5505 C -8.9 36.55 -8.91 36.55 -8.90688 36.55663 C -8.91 36.56 -8.91 36.56 -8.91189 36.56396 C -8.91 36.57 -8.92 36.57 -8.91819 36.57249 C -8.92 36.58 -8.92 36.58 -8.92593 36.58218 C -8.93 36.59 -8.93 36.59 -8.93523 36.59298 C -8.94 36.6 -8.94 36.6 -8.94622 36.60485 C -8.95 36.61 -8.95 36.61 -8.95238 36.61116 C -8.95 36.61 -8.96 36.62 -8.95901 36.61771 C -8.96 36.62 -8.96 36.62 -8.96611 36.62448 C -8.97 36.63 -8.97 36.63 -8.9737 36.63146 C -8.98 36.63 -8.98 36.64 -8.98177 36.63864 C -8.98 36.64 -8.99 36.64 -8.99036 36.646 C -8.99 36.65 -9 36.65 -8.99945 36.65353 C -9 36.66 -9.01 36.66 -9.00906 36.66122 C -9.01 36.66 -9.02 36.67 -9.01918 36.66904 C -9.02 36.67 -9.03 36.67 -9.02983 36.67698" />
    <path d="M 1.11651 -10.971 L -1.99476 -8.69158" />
    <path d="M 34.41614 -47.26365 A 10 10 0 0 0 17.0217 -44.27038 A 10 10 0 1 0 34.41614 -47.26365 Z" />
    <path d="M -4.42987 -8.9359 L -4.39796 -8.95928" />
</svg>