<svg version="1.1" xmlns="http://www.w3.org/2000/svg" viewBox="-66.000001 -53.98420162059496 132.000002 158.0842737940293" fill="none" stroke="black" stroke-width="0.6%" vector-effect="non-scaling-stroke">
    <path d="M -45.96194 3.43098 A 65 49.19636 360 0 1 3.65416 -10.9005" />
    <path d="M 14.64105 -9.71404 A 65 49.19636 360 0 1 65 38.21806 A 65 49.19636 360 0 1 -65 38.21806 A 65 49.19636 360 0 1 -45.96194 3.43098" />
    <path d="M -65 53.90371 A 65 49.19636 180 0 0 65 53.90371" />
    <path d="M -20.14214 27.51434 A 6 4.5412 180 0 0 -8.14214 27.51434" />
    <path d="M -20.06926 25.70423 L -27.93072 19.75414 L -27.93072 18.44701 L -19.72127 24.66047" />
    <path d="M 17.32412 33.13379 L 13.08148 36.34491 L 13.08148 33.73063 L 11.31371 -23.81425 A 5 2.31071 232.87912 0 1 10.79567 -22.50336" />
    <path d="M 2.47487 28.31712 L 13.08148 36.34491" />
    <path d="M 20.85223 27.41172 A 5 3.78434 180 0 0 21.26346 25.90878" />
    <path d="M 17.32412 33.13379 L 20.85223 27.41172 L 20.85223 26.10459 A 5 3.78434 180 0 0 21.26346 24.60164 L 21.26346 25.90878" />
    <path d="M -24.39518 15.77108 L -16.28923 21.90621" />
    <path d="M -27.93072 18.44701 L -24.39518 15.77108" />
    <path d="M -8.14214 26.46863 A 6 4.5412 360 0 1 -20.14214 26.46863 L -20.14214 27.51434" />
    <path d="M -19.72159 24.66112 Q -19.72 24.66 -19.72127 24.66047" />
    <path d="M 15.9099 32.89703 L 15.9099 31.58989 L 14.14214 -25.95499 L 11.31371 -23.81425" />
    <path d="M 15.9099 32.89703 L 17.32412 31.82665 L 20.85223 26.10459" />
    <path d="M 17.32412 33.13379 L 17.32412 31.82665" />
    <path d="M 15.9099 31.58989 L 13.08148 33.73063" />
    <path d="M 2.47487 25.70284 L 2.47487 28.31712" />
    <path d="M 3.81741 -15.96761 L 2.47487 25.70284" />
    <path d="M 21.26346 24.60164 A 5 3.78434 180 0 0 15.79654 20.83385" />
    <path d="M -17.39483 23.09178 A 4.6 3.48159 360 1 1 -18.17902 23.88447 A 4.6 3.48159 360 0 1 -17.39483 23.09178 Z" />
    <path d="M -19.7184 24.65454 A 5.94164 4.49703 180 0 0 -19.72127 24.66047" />
    <path d="M 14.14214 -25.95499 A 5 2.31071 52.87912 0 0 13.41018 -28.49995" />
    <path d="M 9.89046 -32.37305 A 5 2.31071 52.87912 0 0 7.58911 -32.61774" />
    <path d="M 16.34278 25.8288 C 16.4 25.78 16.45 25.73 16.5086 25.68292 C 16.56 25.63 16.62 25.59 16.67371 25.53663 C 16.73 25.49 16.78 25.44 16.83816 25.38999 C 16.89 25.34 16.95 25.29 17.00199 25.24306 C 17.07 25.18 17.15 25.11 17.21874 25.0475 C 17.29 24.98 17.36 24.92 17.43455 24.85164 C 17.51 24.79 17.58 24.72 17.64949 24.65561 C 17.72 24.59 17.79 24.52 17.86363 24.45951 L 10.59287 11.70664" />
    <path d="M 17.09924 31.02388 A 2.25 1.70295 360 0 1 15.9099 32.52574" />
    <path d="M -12.44508 26.83808 A 2.4 1.81648 360 0 1 -16.24833 24.68277 A 2.4 1.81648 360 1 1 -12.44508 26.83808 Z" />
    <path d="M 15.72385 25.53343 A 2.25 1.70295 360 0 1 17.09924 27.10246 L 17.09924 31.02388" />
    <path d="M 17.09924 27.10246 A 2.25 1.70295 360 0 1 15.81925 28.63903" />
    <path d="M -15.13541 26.48377 A 1.05836 0.80104 360 1 1 -13.14886 26.48377 C -13.15 26.49 -13.15 26.49 -13.15133 26.48862 C -13.15 26.49 -13.15 26.49 -13.15434 26.49414 C -13.16 26.5 -13.16 26.5 -13.15796 26.50035 C -13.16 26.5 -13.16 26.5 -13.16227 26.50724 C -13.16 26.51 -13.17 26.51 -13.16735 26.51481 C -13.17 26.52 -13.17 26.52 -13.17325 26.52307 C -13.18 26.53 -13.18 26.53 -13.18004 26.53198 C -13.18 26.54 -13.19 26.54 -13.18778 26.54153 C -13.19 26.54 -13.19 26.55 -13.19654 26.5517 C -13.2 26.56 -13.2 26.56 -13.20635 26.56246 C -13.21 26.57 -13.21 26.57 -13.21727 26.57376 C -13.22 26.58 -13.23 26.58 -13.22935 26.58557 C -13.23 26.59 -13.24 26.59 -13.24262 26.59783 C -13.25 26.6 -13.25 26.61 -13.25713 26.61049 C -13.26 26.61 -13.27 26.62 -13.2729 26.62349 C -13.28 26.63 -13.28 26.63 -13.28998 26.63677" />
    <path d="M 1.64376 -17.14132 A 4 1.84857 52.87912 0 0 1.68361 -17.36168" />
    <path d="M -2.6624 -23.10378 A 4 1.84857 52.87912 0 0 -2.88529 -23.12527" />
    <path d="M 1.17902 -15.22483 A 5 2.31071 52.87912 0 0 -4.85597 -23.19847 L -7.96724 -20.84365 A 5 2.31071 232.87912 1 1 -1.93225 -12.87001 A 5 2.31071 232.87912 0 1 -8.48528 -19.53276 A 5 2.31071 232.87912 0 1 -7.96724 -20.84365" />
    <path d="M 5.38876 -17.15691 A 6 2.77286 52.87912 0 0 5.2271 -21.59308 L 20.82727 -34.76029" />
    <path d="M 1.98041 -25.69664 A 6 2.77286 52.87912 0 0 -1.85322 -26.72528" />
    <path d="M 1.69157 -18.91715 L 20.62893 -34.9011" />
    <path d="M 1.69157 -18.91715 L 5.2271 -21.59308" />
    <path d="M -5.48864 -12.85674 L -4.77395 -13.45998" />
    <path d="M 1.69157 -18.91715 A 6 2.77286 232.87912 0 1 1.85322 -14.48098 L 5.38876 -17.15691" />
    <path d="M 1.85322 -14.48098 A 6 2.77286 232.87912 0 1 0.02756 -14.35333" />
    <path d="M 17.45393 -38.75695 L -1.37029 -22.8685" />
    <path d="M -6.00742 -22.32697 A 6 2.77286 232.87912 0 1 -5.38876 -24.04935 L -1.85322 -26.72528" />
    <path d="M -5.38876 -24.04935 A 6 2.77286 232.87912 0 1 -1.37029 -22.8685" />
    <path d="M -7.92259 -17.33808 L -8.55051 -16.80809" />
    <path d="M -5.48864 -12.85674 A 2.75 1.27089 232.87912 0 1 -5.765 -12.29779 L -4.70434 -13.10057 A 2.75 1.27089 52.87912 0 0 -4.5354 -13.2979" />
    <path d="M -5.765 -12.29779 A 2.75 1.27089 232.87912 0 1 -9.08424 -16.68329 L -8.02358 -17.48607" />
    <path d="M -9.08424 -16.68329 A 2.75 1.27089 232.87912 0 1 -8.55051 -16.80809" />
    <path d="M -4.82006 -23.2245 A 5 2.31071 232.87912 0 1 -4.78526 -23.25199 A 5 2.31071 232.87912 0 1 1.24973 -15.27835 A 5 2.31071 232.87912 0 1 1.21382 -15.25232" />
    <path d="M -5.48864 -12.85674 L -4.73134 -13.42992" />
    <path d="M -7.99665 -17.50529 A 2.75 1.27089 52.87912 0 0 -8.02358 -17.48607" />
    <path d="M -4.39908 -23.403 A 5 2.31071 232.87912 0 1 -4.37563 -23.44549" />
    <path d="M 1.5472 -15.62003 A 5 2.31071 232.87912 0 1 1.49994 -15.60901" />
    <path d="M -65 38.21806 L -65 53.90371" />
    <path d="M 65 38.21806 L 65 53.90371" />
    <path d="M -8.14214 26.46863 L -8.14214 27.51434" />
    <path d="M -18.23972 22.89046 C -18.17 22.84 -18.1 22.79 -18.02699 22.73703 C -17.95 22.69 -17.88 22.64 -17.80594 22.59237 C -17.73 22.55 -17.65 22.5 -17.57708 22.45669 C -17.5 22.41 -17.42 22.37 -17.34091 22.33022 C -17.26 22.29 -17.18 22.25 -17.09795 22.21314 C -17.02 22.18 -16.93 22.14 -16.84872 22.10564 C -16.76 22.07 -16.68 22.04 -16.59377 22.0079 C -16.51 21.98 -16.42 21.95 -16.33362 21.92005 C -16.25 21.89 -16.16 21.87 -16.06884 21.84224 C -15.98 21.82 -15.89 21.8 -15.79997 21.77459 C -15.71 21.75 -15.62 21.73 -15.52759 21.71721 C -15.44 21.7 -15.34 21.68 -15.25227 21.67019 C -15.16 21.66 -15.07 21.64 -14.97458 21.63361 C -14.88 21.62 -14.79 21.61 -14.69513 21.60753 C -14.6 21.6 -14.51 21.6 -14.41451 21.592 C -14.32 21.59 -14.23 21.59 -14.13333 21.58705 C -14.04 21.59 -13.95 21.59 -13.85137 21.59269 C -13.76 21.6 -13.66 21.6 -13.57001 21.60897 C -13.48 21.62 -13.38 21.63 -13.28987 21.63587 C -13.2 21.65 -13.1 21.66 -13.01155 21.67331 C -12.92 21.69 -12.83 21.7 -12.73564 21.72125 C -12.64 21.74 -12.55 21.76 -12.46274 21.77961 C -12.37 21.8 -12.28 21.82 -12.19342 21.84828 C -12.1 21.87 -12.02 21.9 -11.92825 21.92716 C -11.84 21.96 -11.75 21.98 -11.66779 22.01613 C -11.58 22.05 -11.5 22.08 -11.4126 22.11503 C -11.33 22.15 -11.25 22.19 -11.16322 22.22373 C -11.08 22.26 -11 22.3 -10.9202 22.34205 C -10.6 22.51 -10.3 22.7 -10.02204 22.90759 C -9.26 23.46 -8.2 24.63 -8.14214 26.46863" />
    <path d="M -19.7184 24.65454 C -19.7 24.61 -19.68 24.57 -19.65442 24.52811 C -19.63 24.49 -19.61 24.44 -19.58627 24.40347 C -19.56 24.36 -19.54 24.32 -19.51401 24.2807 C -19.49 24.24 -19.46 24.2 -19.43774 24.1599 C -19.41 24.12 -19.38 24.08 -19.35752 24.04115 C -19.33 24 -19.3 23.96 -19.27346 23.92452 C -19.24 23.89 -19.22 23.85 -19.18562 23.8101 C -19.16 23.77 -19.13 23.73 -19.0941 23.69795 C -19.06 23.66 -19.03 23.62 -18.99898 23.58815 C -18.97 23.55 -18.93 23.52 -18.90034 23.48077 C -18.87 23.45 -18.83 23.41 -18.79828 23.37586 C -18.76 23.34 -18.73 23.31 -18.69288 23.27349 C -18.66 23.24 -18.62 23.21 -18.58424 23.17372 C -18.55 23.14 -18.51 23.11 -18.47243 23.07659 C -18.43 23.04 -18.4 23.01 -18.35757 22.98216 C -18.32 22.95 -18.28 22.92 -18.23972 22.89046" />
    <path d="M -19.72159 24.66112 C -19.74 24.7 -19.76 24.73 -19.77162 24.76814 C -19.79 24.8 -19.8 24.84 -19.81863 24.87627 C -19.83 24.91 -19.85 24.95 -19.8626 24.98546 C -19.88 25.02 -19.89 25.06 -19.90347 25.09563 C -19.92 25.13 -19.93 25.17 -19.94122 25.20673 C -19.95 25.24 -19.96 25.28 -19.97581 25.31867 C -19.99 25.36 -20 25.39 -20.0072 25.43139 C -20.02 25.47 -20.03 25.51 -20.03537 25.54482 C -20.04 25.58 -20.05 25.62 -20.06029 25.65889 C -20.07 25.7 -20.08 25.74 -20.08194 25.77351 C -20.09 25.81 -20.09 25.85 -20.10029 25.88862 C -20.11 25.93 -20.11 25.97 -20.11534 26.00414 C -20.12 26.04 -20.12 26.08 -20.12705 26.11998 C -20.13 26.16 -20.13 26.2 -20.13543 26.23606 C -20.14 26.27 -20.14 26.31 -20.14046 26.35231 C -20.14 26.39 -20.14 26.43 -20.14214 26.46863" />
    <path d="M 6.00742 -18.87929 L 10.79567 -22.50336" />
    <path d="M -0.02756 -26.85293 L 7.58911 -32.61774" />
    <path d="M -15.13541 26.48377 C -15.13 26.49 -15.13 26.49 -15.13299 26.48856 C -15.13 26.49 -15.13 26.49 -15.13003 26.494 C -15.13 26.5 -15.13 26.5 -15.12647 26.5001 C -15.13 26.5 -15.12 26.5 -15.12223 26.50687 C -15.12 26.51 -15.12 26.51 -15.11726 26.51431 C -15.12 26.52 -15.11 26.52 -15.11149 26.52241 C -15.11 26.53 -15.11 26.53 -15.10487 26.53115 C -15.1 26.53 -15.1 26.54 -15.09732 26.54053 C -15.09 26.54 -15.09 26.55 -15.0898 26.54936 C -15.09 26.55 -15.08 26.56 -15.08147 26.55865 C -15.08 26.56 -15.08 26.57 -15.07229 26.56838 C -15.07 26.57 -15.07 26.58 -15.06224 26.57851 C -15.06 26.58 -15.06 26.59 -15.05129 26.58901 C -15.05 26.59 -15.04 26.6 -15.0394 26.59985 C -15.04 26.6 -15.03 26.61 -15.02655 26.61098 C -15.02 26.61 -15.02 26.62 -15.01274 26.62237 C -15.01 26.63 -15 26.63 -14.99794 26.63398 C -14.99 26.64 -14.99 26.64 -14.98215 26.64578 C -14.98 26.65 -14.97 26.65 -14.96535 26.65771 C -14.96 26.66 -14.95 26.67 -14.94756 26.66973 C -14.94 26.67 -14.94 26.68 -14.92876 26.6818 C -14.92 26.69 -14.92 26.69 -14.90897 26.69388 C -14.9 26.7 -14.9 26.7 -14.88819 26.7059 C -14.88 26.71 -14.87 26.71 -14.86645 26.71782 C -14.85 26.73 -14.84 26.73 -14.82022 26.74123 C -14.8 26.75 -14.79 26.76 -14.77027 26.76376 C -14.74 26.78 -14.7 26.79 -14.66036 26.80497 C -14.58 26.83 -14.5 26.85 -14.40918 26.8647 C -14.23 26.89 -14.04 26.89 -13.86029 26.86234 C -13.61 26.82 -13.4 26.73 -13.28998 26.63677" />
    <path d="M 1.17902 -15.22483 L -1.93225 -12.87001" />
    <path d="M 34.42107 -49.10938 A 9.999999999999998 9.999999999999998 0 0 0 17.1924 -46.59822 A 9.999999999999998 9.999999999999998 0 1 0 34.42107 -49.10938 Z" />
</svg>