<svg version="1.1" xmlns="http://www.w3.org/2000/svg" viewBox="-66.000001 -52.132112219148496 132.000002 163.0941777605058" fill="none" stroke="black" stroke-width="0.6%" vector-effect="non-scaling-stroke">
    <path d="M -45.96194 11.2314 A 65 47.62124 360 0 1 3.56333 -2.64493" />
    <path d="M 14.7347 -1.47684 A 65 47.62124 360 0 1 65 44.9047 A 65 47.62124 360 0 1 -65 44.9047 A 65 47.62124 360 0 1 -45.96194 11.2314" />
    <path d="M -65 61.23964 A 65 47.62124 180 0 0 65 61.23964" />
    <path d="M -20.14214 34.54369 A 6 4.39581 180 0 0 -8.14214 34.54369" />
    <path d="M 17.32412 39.98322 L 13.08148 43.09153 L 13.08148 40.36904 L 11.31371 -19.45961 A 5 2.40636 233.77221 0 1 10.73316 -18.01649" />
    <path d="M 2.47487 35.32076 L 13.08148 43.09153" />
    <path d="M 20.85223 34.44436 A 5 3.66317 180 0 0 21.26346 32.98954" />
    <path d="M 17.32412 39.98322 L 20.85223 34.44436 L 20.85223 33.08311 A 5 3.66317 180 0 0 21.26346 31.62829 A 5 3.66317 180 0 0 15.99312 27.97048" />
    <path d="M -8.14214 33.45469 A 6 4.39581 360 0 1 -20.14214 33.45469 L -20.14214 34.54369" />
    <path d="M 15.9099 39.65808 L 15.9099 38.29683 L 14.14214 -21.53181 L 11.31371 -19.45961" />
    <path d="M 15.9099 39.65808 L 17.32412 38.62198 L 20.85223 33.08311" />
    <path d="M 17.32412 39.98322 L 17.32412 38.62198" />
    <path d="M 15.9099 38.29683 L 13.08148 40.36904" />
    <path d="M 2.47487 32.59827 L 2.47487 35.32076" />
    <path d="M 3.84391 -11.72953 L 2.47487 32.59827" />
    <path d="M -39.90867 98.82813 A 60 43.95807 180 0 0 39.90867 98.82813" />
    <path d="M -17.39483 30.11879 A 4.6 3.37012 360 1 1 -18.17902 30.8861 A 4.6 3.37012 360 0 1 -17.39483 30.11879 Z" />
    <path d="M 14.14214 -21.53181 A 5 2.40636 53.77221 0 0 13.05175 -24.78869" />
    <path d="M 8.83231 -28.36552 A 5 2.40636 53.77221 0 0 7.65162 -28.15543" />
    <path d="M 16.52486 32.66105 C 16.6 32.59 16.68 32.52 16.7641 32.45543 C 16.84 32.39 16.92 32.32 17.00199 32.24917 C 17.07 32.19 17.15 32.12 17.21874 32.05987 C 17.29 32 17.36 31.93 17.43455 31.87028 C 17.51 31.81 17.58 31.74 17.64949 31.68053 C 17.72 31.62 17.79 31.55 17.86363 31.4907 L 10.59287 17.8074" />
    <path d="M 17.09924 37.8449 A 2.25 1.64843 360 0 1 15.9099 39.29868" />
    <path d="M -12.44508 33.74514 A 2.4 1.75832 360 0 1 -16.24833 31.65884 A 2.4 1.75832 360 1 1 -12.44508 33.74514 Z" />
    <path d="M 15.73108 32.24462 A 2.25 1.64843 360 0 1 17.09924 33.76117 L 17.09924 37.8449" />
    <path d="M 17.09924 33.76117 A 2.25 1.64843 360 0 1 15.81983 35.24834" />
    <path d="M -14.84924 31.98377 A 1 0.73263 360 0 1 -13.14214 32.50182 L -13.14214 33.43601" />
    <path d="M -13.14214 32.50182 A 1 0.73263 360 0 1 -15.14214 32.50182 L -15.14214 33.43603" />
    <path d="M -15.14214 32.50182 A 1 0.73263 360 0 1 -14.84924 31.98377" />
    <path d="M 1.65106 -12.99494 A 4 1.92509 53.77221 0 0 1.68824 -13.24191" />
    <path d="M -2.45584 -18.89832 A 4 1.92509 53.77221 0 0 -2.70253 -18.93732" />
    <path d="M 1.11651 -10.971 A 5 2.40636 53.77221 0 0 -4.79346 -19.03774 L -7.90473 -16.75832 A 5 2.40636 233.77221 0 1 -1.99476 -8.69158 A 5 2.40636 233.77221 0 1 -8.48528 -15.3152 A 5 2.40636 233.77221 0 1 -7.90473 -16.75832" />
    <path d="M 5.31375 -12.80639 A 6 2.88764 53.77221 0 0 5.2271 -17.47622 L 21.36718 -32.55981" />
    <path d="M 1.74781 -21.74474 A 6 2.88764 53.77221 0 0 -1.77822 -22.48647" />
    <path d="M 1.69157 -14.88596 L 20.91321 -32.84941" />
    <path d="M 1.69157 -14.88596 L 5.2271 -17.47622" />
    <path d="M -5.48864 -8.17574 L -4.55139 -9.05165" />
    <path d="M 1.69157 -14.88596 A 6 2.88764 233.77221 0 1 1.77822 -10.21613 L 5.31375 -12.80639" />
    <path d="M 1.77822 -10.21613 A 6 2.88764 233.77221 0 1 -0.1004 -10.07946" />
    <path d="M 17.61574 -36.574 L -1.37029 -18.83074" />
    <path d="M -6.01037 -18.14619 A 6 2.88764 233.77221 0 1 -5.31375 -19.89622 L -1.77822 -22.48647" />
    <path d="M -5.31375 -19.89622 A 6 2.88764 233.77221 0 1 -1.37029 -18.83074" />
    <path d="M -7.80748 -12.81492 L -8.55051 -12.12053" />
    <path d="M -5.48864 -8.17574 A 2.75 1.3235 233.77221 0 1 -5.79938 -7.55125 L -4.73872 -8.32833 A 2.75 1.3235 53.77221 0 0 -4.42798 -8.95282" />
    <path d="M -5.79938 -7.55125 A 2.75 1.3235 233.77221 0 1 -9.04986 -11.98796 L -7.9892 -12.76503" />
    <path d="M -9.04986 -11.98796 A 2.75 1.3235 233.77221 0 1 -8.55051 -12.12053" />
    <path d="M -4.75762 -19.06297 A 5 2.40636 233.77221 0 1 -4.72275 -19.08954 A 5 2.40636 233.77221 1 1 1.18722 -11.02281 A 5 2.40636 233.77221 0 1 1.15137 -10.99757" />
    <path d="M -4.40187 -8.96155 L -4.42922 -8.94152" />
    <path d="M -5.48864 -8.17574 L -4.42798 -8.95282" />
    <path d="M -7.82546 -12.85206 A 2.75 1.3235 53.77221 0 0 -7.9892 -12.76503" />
    <path d="M -4.34464 -19.24089 A 5 2.40636 233.77221 0 1 -4.31977 -19.2811" />
    <path d="M 1.49134 -11.3493 A 5 2.40636 233.77221 0 1 1.4455 -11.33771" />
    <path d="M -65 44.9047 L -65 61.23964" />
    <path d="M 65 44.9047 L 65 61.23964" />
    <path d="M -8.14214 33.45469 L -8.14214 34.54369" />
    <path d="M 21.26346 31.62829 L 21.26346 32.98954" />
    <path d="M -8.14214 33.45469 C -8.14 33.41 -8.14 33.36 -8.14492 33.30766 C -8.15 33.26 -8.15 33.21 -8.1533 33.1608 C -8.16 33.11 -8.16 33.06 -8.16726 33.01429 C -8.17 32.97 -8.18 32.92 -8.18676 32.86832 C -8.19 32.82 -8.2 32.77 -8.21176 32.72306 C -8.22 32.67 -8.23 32.63 -8.24223 32.57868 C -8.25 32.53 -8.27 32.48 -8.2781 32.43535 C -8.29 32.39 -8.3 32.34 -8.31931 32.29323 C -8.33 32.25 -8.35 32.2 -8.36581 32.15246 C -8.38 32.11 -8.4 32.06 -8.41752 32.01321 C -8.44 31.97 -8.45 31.92 -8.47436 31.8756 C -8.49 31.83 -8.51 31.78 -8.53623 31.73977 C -8.56 31.69 -8.58 31.65 -8.60306 31.60586 C -8.63 31.56 -8.65 31.52 -8.67473 31.47398 C -8.7 31.43 -8.72 31.39 -8.75114 31.34426 C -8.78 31.3 -8.8 31.26 -8.83217 31.2168 C -8.85 31.18 -8.88 31.15 -8.90203 31.11403 C -8.93 31.08 -8.95 31.05 -8.97488 31.01291 C -9 30.98 -9.02 30.95 -9.05067 30.91347 C -9.08 30.88 -9.1 30.85 -9.12933 30.81577 C -9.16 30.78 -9.18 30.75 -9.21081 30.71985 C -9.24 30.69 -9.27 30.66 -9.29505 30.62576 C -9.32 30.59 -9.35 30.56 -9.38198 30.53353 C -9.41 30.5 -9.44 30.47 -9.47155 30.4432 C -9.5 30.41 -9.53 30.38 -9.56369 30.35481 C -9.59 30.33 -9.63 30.3 -9.65834 30.2684 C -9.69 30.24 -9.72 30.21 -9.75545 30.184 C -9.79 30.16 -9.82 30.13 -9.85495 30.10165 C -9.99 29.99 -10.13 29.89 -10.2756 29.79325 C -12.26 28.38 -15.85 28.21 -18.22222 29.94232" />
    <path d="M -20.14214 33.45469 C -20.14 33.42 -20.14 33.39 -20.14073 33.35043 C -20.14 33.32 -20.14 33.28 -20.13652 33.24623 C -20.13 33.21 -20.13 33.18 -20.1295 33.14216 C -20.13 33.11 -20.12 33.07 -20.11968 33.03827 C -20.12 33 -20.11 32.97 -20.10707 32.93465 C -20.1 32.9 -20.1 32.87 -20.09169 32.83134 C -20.09 32.8 -20.08 32.76 -20.07354 32.72841 C -20.07 32.69 -20.06 32.66 -20.05264 32.62592 C -20.05 32.59 -20.04 32.56 -20.02902 32.52392 C -20.02 32.49 -20.01 32.46 -20.00268 32.42249 C -19.99 32.39 -19.98 32.36 -19.97366 32.32166 C -19.96 32.29 -19.95 32.25 -19.94198 32.22151 C -19.93 32.19 -19.92 32.16 -19.90765 32.12207 C -19.9 32.09 -19.88 32.06 -19.87073 32.02341 C -19.86 31.99 -19.84 31.96 -19.83122 31.92558 C -19.82 31.89 -19.8 31.86 -19.78917 31.82862 C -19.77 31.78 -19.75 31.74 -19.72499 31.69222 C -19.7 31.65 -19.68 31.6 -19.65581 31.55782 C -19.63 31.51 -19.61 31.47 -19.58173 31.42554 C -19.56 31.38 -19.53 31.34 -19.50285 31.29549 C -19.48 31.25 -19.45 31.21 -19.41928 31.16778 C -19.39 31.13 -19.36 31.08 -19.33114 31.04251 C -19.3 31 -19.27 30.96 -19.23852 30.91977 C -19.21 30.88 -19.17 30.84 -19.14154 30.79965 C -19.11 30.76 -19.07 30.72 -19.04032 30.68224 C -19.01 30.64 -18.97 30.61 -18.93495 30.56762 C -18.9 30.53 -18.86 30.49 -18.82556 30.45586 C -18.79 30.42 -18.75 30.38 -18.71225 30.34704 C -18.64 30.28 -18.56 30.21 -18.47437 30.13845 C -18.39 30.07 -18.31 30.01 -18.22222 29.94232" />
    <path d="M 6.01037 -14.55641 L 10.73316 -18.01649" />
    <path d="M 0.1004 -22.62315 L 7.65162 -28.15543" />
    <path d="M -13.27248 33.56867 C -13.28 33.57 -13.29 33.58 -13.29568 33.58507 C -13.3 33.59 -13.31 33.6 -13.3211 33.60178 C -13.33 33.61 -13.34 33.61 -13.3487 33.61866 C -13.36 33.62 -13.37 33.63 -13.37845 33.63554 C -13.39 33.64 -13.4 33.65 -13.41028 33.65228 C -13.42 33.66 -13.43 33.66 -13.44415 33.66876 C -13.46 33.67 -13.47 33.68 -13.47998 33.68483 C -13.49 33.69 -13.5 33.7 -13.51769 33.70037 C -13.53 33.71 -13.54 33.71 -13.55718 33.71528 C -13.57 33.72 -13.58 33.72 -13.59836 33.72944 C -13.61 33.73 -13.63 33.74 -13.64111 33.74275 C -13.66 33.75 -13.67 33.75 -13.68532 33.75512 C -13.7 33.76 -13.72 33.76 -13.73085 33.76647 C -13.75 33.77 -13.76 33.77 -13.77756 33.77671 C -13.79 33.78 -13.81 33.78 -13.82531 33.78577 C -13.84 33.79 -13.86 33.79 -13.87392 33.79359 C -13.89 33.8 -13.91 33.8 -13.9327 33.80123 C -13.95 33.8 -13.97 33.81 -13.99235 33.80701 C -14.01 33.81 -14.03 33.81 -14.05262 33.81087 C -14.07 33.81 -14.09 33.81 -14.11325 33.81279 C -14.13 33.81 -14.15 33.81 -14.174 33.81275 C -14.19 33.81 -14.21 33.81 -14.2346 33.81074 C -14.25 33.81 -14.27 33.81 -14.29483 33.80678 C -14.31 33.81 -14.33 33.8 -14.35443 33.8009 C -14.37 33.8 -14.39 33.8 -14.41318 33.79317 C -14.43 33.79 -14.45 33.79 -14.47083 33.78363 C -14.49 33.78 -14.51 33.78 -14.52715 33.77238 C -14.55 33.77 -14.56 33.76 -14.58192 33.75952 C -14.65 33.74 -14.72 33.72 -14.78099 33.69459 C -15.11 33.56 -15.15 33.41 -15.14554 33.4289 C -15.15 33.43 -15.15 33.43 -15.14535 33.42946 C -15.15 33.43 -15.15 33.43 -15.14489 33.43105 C -15.14 33.43 -15.14 33.43 -15.14428 33.43356 C -15.14 33.43 -15.14 33.44 -15.14363 33.43683 C -15.14 33.44 -15.14 33.44 -15.14303 33.44074 C -15.14 33.44 -15.14 33.44 -15.14255 33.44512 C -15.14 33.45 -15.14 33.45 -15.14224 33.44983 C -15.14 33.45 -15.14 33.45 -15.14214 33.45469" />
    <path d="M -13.14214 33.45469 C -13.14 33.45 -13.14 33.45 -13.14203 33.44983 C -13.14 33.45 -13.14 33.45 -13.14172 33.44512 C -13.14 33.44 -13.14 33.44 -13.14124 33.44074 C -13.14 33.44 -13.14 33.44 -13.14064 33.43683 C -13.14 33.44 -13.14 33.43 -13.13999 33.43356 C -13.14 33.43 -13.14 33.43 -13.13938 33.43105 C -13.14 33.43 -13.14 33.43 -13.13892 33.42946 C -13.14 33.43 -13.14 33.43 -13.13874 33.4289 C -13.14 33.43 -13.14 33.43 -13.13893 33.4294 C -13.14 33.43 -13.14 33.43 -13.13959 33.43091 C -13.14 33.43 -13.14 33.43 -13.14084 33.43352 C -13.14 33.43 -13.14 33.44 -13.14282 33.43727 C -13.14 33.44 -13.14 33.44 -13.14566 33.44219 C -13.15 33.44 -13.15 33.45 -13.14952 33.44832 C -13.15 33.45 -13.15 33.45 -13.15453 33.45566 C -13.16 33.46 -13.16 33.46 -13.16083 33.46418 C -13.16 33.47 -13.17 33.47 -13.16857 33.47387 C -13.17 33.48 -13.17 33.48 -13.17787 33.48468 C -13.18 33.49 -13.18 33.49 -13.18886 33.49655 C -13.19 33.5 -13.19 33.5 -13.19503 33.50286 C -13.2 33.51 -13.2 33.51 -13.20165 33.5094 C -13.2 33.51 -13.21 33.51 -13.20875 33.51617 C -13.21 33.52 -13.21 33.52 -13.21634 33.52315 C -13.22 33.53 -13.22 33.53 -13.22441 33.53033 C -13.23 33.53 -13.23 33.54 -13.233 33.5377 C -13.24 33.54 -13.24 33.54 -13.24209 33.54523 C -13.25 33.55 -13.25 33.55 -13.2517 33.55291 C -13.25 33.56 -13.26 33.56 -13.26182 33.56073 C -13.27 33.56 -13.27 33.57 -13.27248 33.56867" />
    <path d="M 1.11651 -10.971 L -1.99476 -8.69158" />
    <path d="M 34.41614 -47.26365 A 10 10 0 0 0 17.0217 -44.27038 A 10 10 0 1 0 34.41614 -47.26365 Z" />
    <path d="M -4.42987 -8.9359 L -4.39796 -8.95928" />
</svg>