<svg version="1.1" xmlns="http://www.w3.org/2000/svg" viewBox="-66.000001 -52.12063097932652 132.000002 163.07852841777583" fill="none" stroke="black" stroke-width="0.6%" vector-effect="non-scaling-stroke">
    <path d="M -45.96194 11.22042 A 65 47.62734 360 0 1 3.56367 -2.65767" />
    <path d="M 14.73436 -1.48951 A 65 47.62734 360 0 1 65 44.89804 A 65 47.62734 360 0 1 -65 44.89804 A 65 47.62734 360 0 1 -45.96194 11.22042" />
    <path d="M -65 61.23055 A 65 47.62734 180 0 0 65 61.23055" />
    <path d="M -20.14214 34.53569 A 6 4.39637 180 0 0 -8.14214 34.53569" />
    <path d="M 17.32412 39.97592 L 13.08148 43.08463 L 13.08148 40.36254 L 11.31371 -19.45758 A 5 2.40601 233.76871 0 1 10.73341 -18.01498" />
    <path d="M 2.47487 35.31287 L 13.08148 43.08463" />
    <path d="M 20.85223 34.43635 A 5 3.66364 180 0 0 21.26346 32.98134" />
    <path d="M 17.32412 39.97592 L 20.85223 34.43635 L 20.85223 33.07531 A 5 3.66364 180 0 0 21.26346 31.6203 A 5 3.66364 180 0 0 15.99242 27.96204" />
    <path d="M -8.14214 33.44686 A 6 4.39637 360 0 1 -20.14214 33.44686 L -20.14214 34.53569" />
    <path d="M 15.9099 39.65112 L 15.9099 38.29007 L 14.14214 -21.53005 L 11.31371 -19.45758" />
    <path d="M 15.9099 39.65112 L 17.32412 38.61488 L 20.85223 33.07531" />
    <path d="M 17.32412 39.97592 L 17.32412 38.61488" />
    <path d="M 15.9099 38.29007 L 13.08148 40.36254" />
    <path d="M 2.47487 32.59078 L 2.47487 35.31287" />
    <path d="M 3.84381 -11.72706 L 2.47487 32.59078" />
    <path d="M -39.89273 98.83293 A 60 43.9637 180 0 0 39.89273 98.83293" />
    <path d="M -17.39483 30.11079 A 4.6 3.37055 360 1 1 -18.17902 30.8782 A 4.6 3.37055 360 0 1 -17.39483 30.11079 Z" />
    <path d="M 14.14214 -21.53005 A 5 2.40601 53.76871 0 0 13.05314 -24.78437" />
    <path d="M 8.83684 -28.36302 A 5 2.40601 53.76871 0 0 7.65137 -28.15382" />
    <path d="M 16.52419 32.65376 C 16.6 32.59 16.68 32.52 16.76377 32.44784 C 16.84 32.38 16.92 32.31 17.00199 32.24126 C 17.07 32.18 17.15 32.12 17.21874 32.05194 C 17.29 31.99 17.36 31.93 17.43455 31.86232 C 17.51 31.8 17.58 31.74 17.64949 31.67254 C 17.72 31.61 17.79 31.55 17.86363 31.48269 L 10.59287 17.80289" />
    <path d="M 17.09924 37.8377 A 2.25 1.64864 360 0 1 15.9099 39.29167" />
    <path d="M -12.44508 33.73761 A 2.4 1.75855 360 0 1 -16.24833 31.65104 A 2.4 1.75855 360 1 1 -12.44508 33.73761 Z" />
    <path d="M 15.73105 32.23783 A 2.25 1.64864 360 0 1 17.09924 33.75458 L 17.09924 37.8377" />
    <path d="M 17.09924 33.75458 A 2.25 1.64864 360 0 1 15.81983 35.24194" />
    <path d="M -14.84924 31.97601 A 1 0.73273 360 0 1 -13.14214 32.49413 L -13.14214 33.42826" />
    <path d="M -13.14214 32.49413 A 1 0.73273 360 0 1 -15.14214 32.49413 L -15.14214 33.42828" />
    <path d="M -15.14214 32.49413 A 1 0.73273 360 0 1 -14.84924 31.97601" />
    <path d="M 1.65104 -12.99211 A 4 1.9248 53.76871 0 0 1.68823 -13.23897" />
    <path d="M -2.45665 -18.89574 A 4 1.9248 53.76871 0 0 -2.70324 -18.93466" />
    <path d="M 1.11675 -10.96858 A 5 2.40601 53.76871 0 0 -4.79371 -19.03496 L -7.90498 -16.75524 A 5 2.40601 233.76871 0 1 -1.99452 -8.68887 A 5 2.40601 233.76871 0 1 -8.48528 -15.31264 A 5 2.40601 233.76871 0 1 -7.90498 -16.75524" />
    <path d="M 5.31404 -12.80434 A 6 2.88721 53.76871 0 0 5.2271 -17.47328 L 21.3652 -32.54951" />
    <path d="M 1.74867 -21.74125 A 6 2.88721 53.76871 0 0 -1.77851 -22.48399" />
    <path d="M 1.69157 -14.88269 L 20.91219 -32.83862" />
    <path d="M 1.69157 -14.88269 L 5.2271 -17.47328" />
    <path d="M -5.48864 -8.17493 L -4.55221 -9.04974" />
    <path d="M 1.69157 -14.88269 A 6 2.88721 233.76871 0 1 1.77851 -10.21376 L 5.31404 -12.80434" />
    <path d="M 1.77851 -10.21376 A 6 2.88721 233.76871 0 1 -0.0999 -10.0771" />
    <path d="M 17.61513 -36.56371 L -1.37029 -18.82751" />
    <path d="M -6.01036 -18.14348 A 6 2.88721 233.76871 0 1 -5.31404 -19.89341 L -1.77851 -22.48399" />
    <path d="M -5.31404 -19.89341 A 6 2.88721 233.76871 0 1 -1.37029 -18.82751" />
    <path d="M -7.80791 -12.81348 L -8.55051 -12.11974" />
    <path d="M -5.48864 -8.17493 A 2.75 1.3233 233.76871 0 1 -5.79924 -7.55069 L -4.73858 -8.32786 A 2.75 1.3233 53.76871 0 0 -4.42798 -8.9521" />
    <path d="M -5.79924 -7.55069 A 2.75 1.3233 233.76871 1 1 -9.05 -11.98719 L -7.98934 -12.76437" />
    <path d="M -9.05 -11.98719 A 2.75 1.3233 233.76871 0 1 -8.55051 -12.11974" />
    <path d="M -4.75786 -19.06019 A 5 2.40601 233.76871 0 1 -4.723 -19.08677 A 5 2.40601 233.76871 0 1 1.18746 -11.02039 A 5 2.40601 233.76871 0 1 1.15162 -10.99516" />
    <path d="M -4.40321 -8.95988 L -4.42922 -8.94082" />
    <path d="M -5.48864 -8.17493 L -4.42798 -8.9521" />
    <path d="M -7.82616 -12.8512 A 2.75 1.3233 53.76871 0 0 -7.98934 -12.76437" />
    <path d="M -4.34486 -19.23812 A 5 2.40601 233.76871 0 1 -4.31999 -19.27834" />
    <path d="M 1.49157 -11.34694 A 5 2.40601 233.76871 0 1 1.44572 -11.33535" />
    <path d="M -65 44.89804 L -65 61.23055" />
    <path d="M 65 44.89804 L 65 61.23055" />
    <path d="M -8.14214 33.44686 L -8.14214 34.53569" />
    <path d="M 21.26346 31.6203 L 21.26346 32.98134" />
    <path d="M -8.14214 33.44686 C -8.14 33.4 -8.14 33.35 -8.14492 33.29978 C -8.15 33.25 -8.15 33.2 -8.1533 33.15287 C -8.16 33.1 -8.16 33.06 -8.16727 33.00631 C -8.17 32.96 -8.18 32.91 -8.18678 32.86029 C -8.19 32.81 -8.2 32.76 -8.2118 32.71498 C -8.22 32.67 -8.23 32.62 -8.24228 32.57056 C -8.25 32.52 -8.27 32.47 -8.27816 32.42718 C -8.29 32.38 -8.3 32.33 -8.3194 32.28501 C -8.33 32.24 -8.35 32.19 -8.36593 32.1442 C -8.38 32.1 -8.4 32.05 -8.41766 32.0049 C -8.44 31.96 -8.45 31.91 -8.47452 31.86725 C -8.49 31.82 -8.51 31.78 -8.53643 31.73138 C -8.56 31.69 -8.58 31.64 -8.60328 31.59743 C -8.63 31.55 -8.65 31.51 -8.67499 31.46551 C -8.7 31.42 -8.73 31.38 -8.75144 31.33575 C -8.78 31.29 -8.8 31.25 -8.83251 31.20826 C -8.86 31.17 -8.88 31.14 -8.90241 31.10545 C -8.93 31.07 -8.95 31.04 -8.97531 31.00428 C -9 30.97 -9.03 30.94 -9.05115 30.90481 C -9.08 30.87 -9.1 30.84 -9.12987 30.80707 C -9.16 30.77 -9.18 30.74 -9.2114 30.71111 C -9.24 30.68 -9.27 30.65 -9.29569 30.61698 C -9.32 30.59 -9.35 30.56 -9.38268 30.52472 C -9.41 30.49 -9.44 30.46 -9.47231 30.43436 C -9.5 30.4 -9.53 30.38 -9.56451 30.34595 C -9.6 30.32 -9.63 30.29 -9.65923 30.25951 C -9.69 30.23 -9.72 30.2 -9.75639 30.17509 C -9.79 30.15 -9.82 30.12 -9.85596 30.09271 C -9.99 29.98 -10.13 29.88 -10.27688 29.78424 C -13.89 27.85 -16.51 28.77 -18.22229 29.93423" />
    <path d="M -20.14214 33.44686 C -20.14 33.41 -20.14 33.38 -20.14073 33.34256 C -20.14 33.31 -20.14 33.27 -20.13652 33.23833 C -20.13 33.2 -20.13 33.17 -20.12949 33.13422 C -20.13 33.1 -20.12 33.06 -20.11967 33.03031 C -20.12 33 -20.11 32.96 -20.10706 32.92665 C -20.1 32.89 -20.1 32.86 -20.09166 32.8233 C -20.09 32.79 -20.08 32.75 -20.07351 32.72034 C -20.07 32.69 -20.06 32.65 -20.0526 32.61782 C -20.05 32.58 -20.04 32.55 -20.02896 32.51579 C -20.02 32.48 -20.01 32.45 -20.00262 32.41432 C -19.99 32.38 -19.98 32.35 -19.97358 32.31347 C -19.96 32.28 -19.95 32.25 -19.94188 32.21328 C -19.93 32.18 -19.92 32.15 -19.90754 32.11382 C -19.9 32.08 -19.88 32.05 -19.8706 32.01513 C -19.86 31.98 -19.84 31.95 -19.83107 31.91726 C -19.82 31.88 -19.8 31.85 -19.789 31.82028 C -19.77 31.77 -19.75 31.73 -19.72482 31.6839 C -19.7 31.64 -19.68 31.59 -19.65565 31.54952 C -19.63 31.51 -19.61 31.46 -19.58157 31.41726 C -19.56 31.37 -19.53 31.33 -19.5027 31.28724 C -19.48 31.24 -19.45 31.2 -19.41914 31.15954 C -19.39 31.12 -19.36 31.08 -19.331 31.03429 C -19.3 30.99 -19.27 30.95 -19.2384 30.91156 C -19.21 30.87 -19.17 30.83 -19.14144 30.79146 C -19.11 30.75 -19.07 30.71 -19.04023 30.67407 C -19.01 30.64 -18.97 30.6 -18.93488 30.55946 C -18.9 30.52 -18.86 30.48 -18.82551 30.44772 C -18.79 30.41 -18.75 30.37 -18.71222 30.33891 C -18.64 30.27 -18.56 30.2 -18.47439 30.13034 C -18.39 30.06 -18.31 30 -18.22229 29.93423" />
    <path d="M 6.01036 -14.55427 L 10.73341 -18.01498" />
    <path d="M 0.0999 -22.62064 L 7.65137 -28.15382" />
    <path d="M -13.27254 33.56105 C -13.28 33.57 -13.29 33.57 -13.29575 33.57745 C -13.3 33.58 -13.31 33.59 -13.32117 33.59417 C -13.33 33.6 -13.34 33.61 -13.34877 33.61104 C -13.36 33.62 -13.37 33.62 -13.37852 33.62793 C -13.39 33.63 -13.4 33.64 -13.41036 33.64467 C -13.42 33.65 -13.43 33.66 -13.44423 33.66115 C -13.46 33.67 -13.47 33.67 -13.48006 33.67722 C -13.49 33.68 -13.5 33.69 -13.51776 33.69277 C -13.53 33.7 -13.54 33.7 -13.55726 33.70768 C -13.57 33.71 -13.58 33.72 -13.59844 33.72184 C -13.61 33.73 -13.63 33.73 -13.64119 33.73515 C -13.66 33.74 -13.67 33.74 -13.6854 33.74752 C -13.7 33.75 -13.72 33.76 -13.73093 33.75887 C -13.75 33.76 -13.76 33.77 -13.77764 33.76911 C -13.79 33.77 -13.81 33.78 -13.82538 33.77817 C -13.84 33.78 -13.86 33.78 -13.874 33.78598 C -13.89 33.79 -13.91 33.79 -13.93279 33.79363 C -13.95 33.8 -13.97 33.8 -13.99246 33.79941 C -14.01 33.8 -14.03 33.8 -14.05275 33.80327 C -14.07 33.8 -14.09 33.8 -14.1134 33.80519 C -14.13 33.81 -14.15 33.81 -14.17416 33.80514 C -14.19 33.8 -14.21 33.8 -14.23479 33.80312 C -14.25 33.8 -14.28 33.8 -14.29503 33.79915 C -14.32 33.8 -14.33 33.8 -14.35465 33.79327 C -14.37 33.79 -14.39 33.79 -14.41341 33.78552 C -14.43 33.78 -14.45 33.78 -14.47107 33.77597 C -14.49 33.77 -14.51 33.77 -14.5274 33.76471 C -14.55 33.76 -14.56 33.76 -14.58217 33.75184 C -14.65 33.73 -14.72 33.71 -14.78125 33.68685 C -15.11 33.55 -15.15 33.41 -15.14552 33.42118 C -15.15 33.42 -15.15 33.42 -15.14533 33.42173 C -15.15 33.42 -15.15 33.42 -15.14487 33.42332 C -15.14 33.42 -15.14 33.42 -15.14427 33.42581 C -15.14 33.43 -15.14 33.43 -15.14362 33.42908 C -15.14 33.43 -15.14 33.43 -15.14303 33.43296 C -15.14 33.43 -15.14 33.44 -15.14255 33.43733 C -15.14 33.44 -15.14 33.44 -15.14224 33.44201 C -15.14 33.44 -15.14 33.45 -15.14214 33.44686" />
    <path d="M -13.14214 33.44686 C -13.14 33.45 -13.14 33.44 -13.14203 33.44201 C -13.14 33.44 -13.14 33.44 -13.14172 33.43733 C -13.14 33.44 -13.14 33.43 -13.14125 33.43296 C -13.14 33.43 -13.14 33.43 -13.14065 33.42908 C -13.14 33.43 -13.14 33.43 -13.14 33.42581 C -13.14 33.42 -13.14 33.42 -13.1394 33.42332 C -13.14 33.42 -13.14 33.42 -13.13894 33.42173 C -13.14 33.42 -13.14 33.42 -13.13876 33.42118 C -13.14 33.42 -13.14 33.42 -13.1388 33.42131 C -13.14 33.42 -13.14 33.42 -13.13895 33.42168 C -13.14 33.42 -13.14 33.42 -13.13961 33.42319 C -13.14 33.42 -13.14 33.42 -13.14086 33.4258 C -13.14 33.43 -13.14 33.43 -13.14283 33.42955 C -13.14 33.43 -13.14 33.43 -13.14568 33.43448 C -13.15 33.44 -13.15 33.44 -13.14953 33.44061 C -13.15 33.44 -13.15 33.45 -13.15454 33.44795 C -13.16 33.45 -13.16 33.45 -13.16084 33.45648 C -13.16 33.46 -13.17 33.46 -13.16858 33.46617 C -13.17 33.47 -13.17 33.47 -13.17789 33.47699 C -13.18 33.48 -13.18 33.48 -13.18888 33.48887 C -13.19 33.49 -13.19 33.49 -13.19505 33.49518 C -13.2 33.5 -13.2 33.5 -13.20168 33.50173 C -13.2 33.5 -13.21 33.51 -13.20878 33.50851 C -13.21 33.51 -13.21 33.51 -13.21637 33.51549 C -13.22 33.52 -13.22 33.52 -13.22445 33.52268 C -13.23 33.53 -13.23 33.53 -13.23304 33.53005 C -13.24 33.53 -13.24 33.54 -13.24214 33.53759 C -13.25 33.54 -13.25 33.54 -13.25175 33.54528 C -13.26 33.55 -13.26 33.55 -13.26189 33.5531 C -13.27 33.56 -13.27 33.56 -13.27254 33.56105" />
    <path d="M 1.11675 -10.96858 L -1.99452 -8.68887" />
    <path d="M 34.41616 -47.25214 A 10.000000000000002 10.000000000000002 0 0 0 17.02228 -44.26063 A 10.000000000000002 10.000000000000002 0 1 0 34.41616 -47.25214 Z" />
    <path d="M -4.42986 -8.93523 L -4.39931 -8.95762" />
</svg>