<svg version="1.1" xmlns="http://www.w3.org/2000/svg" viewBox="-66.000001 -55.182281852997164 132.000002 167.18641411356668" fill="none" stroke="black" stroke-width="0.6%" vector-effect="non-scaling-stroke">
    <path d="M -51.16364 91.97842 A 65 45.95249 360 0 1 -65 63.63568" />
    <path d="M -53.03301 96.129 L -45.96194 101.12797 L -42.29022 98.53221" />
    <path d="M 42.29022 98.53221 A 65 45.95249 360 0 1 -42.29022 98.53221" />
    <path d="M 42.29022 98.53221 L 45.96194 101.12797 L 53.03301 96.129 L 53.03301 93.29999 L 49.36129 90.70423 A 65 45.95249 360 0 1 45.96194 93.29999 A 65 45.95249 360 0 1 42.29022 95.7032 L 42.29022 98.53221 Z" />
    <path d="M 65 63.63568 A 65 45.95249 360 0 1 51.16364 91.97842" />
    <path d="M 45.96194 79.15495 A 65 45.95249 360 0 1 -65 46.66163 A 65 45.95249 360 0 1 3.47812 0.77497" />
    <path d="M 14.82306 1.91998 A 65 45.95249 360 0 1 65 46.66163 A 65 45.95249 360 0 1 45.96194 79.15495" />
    <path d="M -42.29022 95.7032 A 65 45.95249 360 0 1 -49.36129 90.70423 L -53.03301 93.29999 L -45.96194 98.29896 L -42.29022 95.7032 L -42.29022 98.53221" />
    <path d="M -53.03301 96.129 L -53.03301 93.29999" />
    <path d="M -45.96194 101.12797 L -45.96194 98.29896" />
    <path d="M 45.96194 101.12797 L 45.96194 98.29896 L 53.03301 93.29999" />
    <path d="M 42.29022 95.7032 L 45.96194 98.29896" />
    <path d="M -40.25202 100.04245 A 60 42.41769 180 0 0 42.3923 98.60437" />
    <path d="M -40.25202 99.71687 L -40.25202 100.04245" />
    <path d="M -20.14214 36.66368 A 6 4.24177 180 0 0 -8.14214 36.66368" />
    <path d="M 17.32412 41.91261 L 13.08148 44.91199 L 13.08148 42.08298 L 11.31371 -19.99044 A 5 2.50051 234.74116 0 1 10.66453 -18.40716" />
    <path d="M 2.47487 37.41353 L 13.08148 44.91199" />
    <path d="M 20.85223 36.56783 A 5 3.53481 180 0 0 21.26346 35.16399" />
    <path d="M 17.32412 41.91261 L 20.85223 36.56783 L 20.85223 35.15333 A 5 3.53481 180 0 0 21.26346 33.74949 L 21.26346 35.16399" />
    <path d="M -8.14214 35.53208 A 6 4.24177 360 0 1 -20.14214 35.53208 L -20.14214 36.66368" />
    <path d="M 15.9099 41.4979 L 15.9099 40.08339 L 14.14214 -21.99003 L 11.31371 -19.99044" />
    <path d="M 15.9099 41.4979 L 17.32412 40.4981 L 20.85223 35.15333" />
    <path d="M 17.32412 41.91261 L 17.32412 40.4981" />
    <path d="M 15.9099 40.08339 L 13.08148 42.08298" />
    <path d="M 2.47487 34.58452 L 2.47487 37.41353" />
    <path d="M 3.86841 -12.37791 L 2.47487 34.58452" />
    <path d="M 21.26346 33.74949 A 5 3.53481 180 0 0 16.17115 30.21528" />
    <path d="M -17.39483 32.2424 A 4.6 3.25202 360 1 1 -18.17902 32.98283 A 4.6 3.25202 360 0 1 -17.39483 32.2424 Z" />
    <path d="M 14.14214 -21.99003 A 5 2.50051 54.74116 0 0 12.67739 -25.89176" />
    <path d="M 16.70045 34.60062 C 16.75 34.56 16.8 34.52 16.85148 34.47473 C 16.9 34.43 16.95 34.39 17.00199 34.34861 C 17.07 34.29 17.15 34.23 17.21874 34.16595 C 17.29 34.11 17.36 34.04 17.43455 33.983 C 17.51 33.92 17.58 33.86 17.64949 33.79989 C 17.72 33.74 17.79 33.68 17.86363 33.61672 L 10.59287 19.00437" />
    <path d="M 17.09924 39.74826 A 2.25 1.59066 360 0 1 15.9099 41.15109" />
    <path d="M -12.44508 35.74168 A 2.4 1.69671 360 0 1 -16.24833 33.72848 A 2.4 1.69671 360 1 1 -12.44508 35.74168 Z" />
    <path d="M 15.73789 34.0434 A 2.25 1.59066 0 0 1 17.09924 35.50474 L 17.09924 39.74826" />
    <path d="M 17.09924 35.50474 A 2.25 1.59066 0 0 1 15.82037 36.93962" />
    <path d="M -13.14393 35.48975 A 1 0.70696 180 0 0 -15.14034 35.48975" />
    <path d="M 1.65743 -13.74778 A 4 2.00041 54.74116 0 0 1.69188 -14.02422" />
    <path d="M -2.2327 -19.57556 A 4 2.00041 54.74116 0 0 -2.5048 -19.63528" />
    <path d="M 1.04788 -11.60856 A 5 2.50051 54.74116 1 0 -4.72483 -19.77409 L -7.8361 -17.57454 A 5 2.50051 234.74116 1 1 -2.06339 -9.40901 A 5 2.50051 234.74116 0 1 -8.48528 -15.99126 A 5 2.50051 234.74116 0 1 -7.8361 -17.57454" />
    <path d="M 5.23139 -13.34149 A 6 3.00062 54.74116 0 0 5.2271 -18.2519 L 21.87585 -35.32427" />
    <path d="M 1.52193 -22.65098 A 6 3.00062 54.74116 0 0 -1.69586 -23.14012" />
    <path d="M 1.69157 -15.75241 L 21.17306 -35.72961" />
    <path d="M 1.69157 -15.75241 L 5.2271 -18.2519" />
    <path d="M -5.48864 -8.3895 L -4.33353 -9.574" />
    <path d="M 1.69157 -15.75241 A 6 3.00062 234.74116 0 1 1.69586 -10.842 L 5.23139 -13.34149" />
    <path d="M 1.69586 -10.842 A 6 3.00062 234.74116 0 1 -0.23579 -10.70106" />
    <path d="M 17.77787 -39.32056 L -1.37029 -19.68516" />
    <path d="M -6.0085 -18.86658 A 6 3.00062 234.74116 0 1 -5.23139 -20.64063 L -1.69586 -23.14012" />
    <path d="M -5.23139 -20.64063 A 6 3.00062 234.74116 0 1 -1.37029 -19.68516" />
    <path d="M -7.69342 -13.20114 L -8.55051 -12.32225" />
    <path d="M -5.48864 -8.3895 A 2.75 1.37528 234.74116 0 1 -5.83713 -7.695 L -4.77647 -8.44485 A 2.75 1.37528 54.74116 0 0 -4.42798 -9.13934" />
    <path d="M -5.83713 -7.695 A 2.75 1.37528 234.74116 0 1 -9.01212 -12.18604 L -7.95351 -12.93443" />
    <path d="M -9.01212 -12.18604 A 2.75 1.37528 234.74116 0 1 -8.55051 -12.32225" />
    <path d="M -4.68905 -19.79847 A 5 2.50051 234.74116 0 1 -4.65412 -19.82408 A 5 2.50051 234.74116 0 1 1.11859 -11.65855 A 5 2.50051 234.74116 0 1 1.0828 -11.63417" />
    <path d="M -4.01008 -9.41839 L -4.42987 -9.12161" />
    <path d="M -5.48864 -8.3895 L -4.42798 -9.13934" />
    <path d="M -3.73643 -9.3125 A 2.75 1.37528 234.74116 0 1 -4.10198 -9.34045" />
    <path d="M -4.28308 -19.97428 A 5 2.50051 234.74116 0 1 -4.25697 -20.01235" />
    <path d="M 1.42854 -11.97017 A 5 2.50051 234.74116 0 1 1.38394 -11.95825" />
    <path d="M -65 46.66163 L -65 63.63568" />
    <path d="M 65 46.66163 L 65 63.63568" />
    <path d="M -8.14214 35.53208 L -8.14214 36.66368" />
    <path d="M -8.14214 35.53208 C -8.14 35.49 -8.14 35.44 -8.14469 35.39433 C -8.15 35.35 -8.15 35.3 -8.15238 35.25672 C -8.16 35.21 -8.16 35.17 -8.1652 35.11944 C -8.17 35.07 -8.18 35.03 -8.1831 34.98264 C -8.19 34.94 -8.2 34.89 -8.20606 34.84648 C -8.21 34.8 -8.22 34.76 -8.23403 34.71112 C -8.24 34.67 -8.26 34.62 -8.26696 34.57671 C -8.28 34.53 -8.29 34.49 -8.3048 34.44338 C -8.32 34.4 -8.33 34.36 -8.34749 34.31129 C -8.36 34.27 -8.38 34.22 -8.39496 34.18054 C -8.41 34.14 -8.43 34.09 -8.44713 34.05128 C -8.47 34.01 -8.48 33.97 -8.50393 33.92362 C -8.52 33.88 -8.54 33.84 -8.56527 33.79768 C -8.59 33.76 -8.61 33.71 -8.63106 33.67356 C -8.65 33.63 -8.68 33.59 -8.70121 33.55136 C -8.73 33.51 -8.75 33.47 -8.7756 33.43119 C -8.8 33.4 -8.82 33.37 -8.83992 33.33394 C -8.86 33.3 -8.88 33.27 -8.90701 33.23815 C -8.93 33.21 -8.95 33.18 -8.97681 33.14387 C -9 33.11 -9.02 33.08 -9.04928 33.05115 C -9.07 33.02 -9.1 32.99 -9.12436 32.96001 C -9.15 32.93 -9.18 32.9 -9.20199 32.87049 C -9.23 32.84 -9.25 32.81 -9.28212 32.78263 C -9.31 32.75 -9.34 32.72 -9.3647 32.69646 C -9.39 32.67 -9.42 32.64 -9.44967 32.61201 C -9.48 32.58 -9.51 32.56 -9.53698 32.52931 C -9.57 32.5 -9.6 32.48 -9.62659 32.44839 C -9.66 32.42 -9.69 32.4 -9.71842 32.36926 C -9.84 32.26 -9.97 32.17 -10.10703 32.07127 C -12.26 30.51 -15.95 30.46 -18.20301 32.08938" />
    <path d="M -20.14214 35.53208 C -20.14 35.49 -20.14 35.44 -20.13981 35.40064 C -20.14 35.36 -20.14 35.31 -20.1328 35.26933 C -20.13 35.23 -20.13 35.18 -20.12114 35.13829 C -20.12 35.09 -20.11 35.05 -20.10483 35.00768 C -20.1 34.96 -20.09 34.92 -20.08392 34.87762 C -20.08 34.83 -20.07 34.79 -20.05843 34.74827 C -20.05 34.71 -20.04 34.66 -20.02842 34.61973 C -20.02 34.58 -20.01 34.53 -19.99392 34.49215 C -19.98 34.45 -19.97 34.41 -19.95498 34.36563 C -19.94 34.32 -19.93 34.28 -19.91166 34.2403 C -19.9 34.2 -19.88 34.16 -19.86403 34.11627 C -19.85 34.08 -19.83 34.03 -19.81215 33.99364 C -19.79 33.95 -19.78 33.91 -19.75609 33.87252 C -19.74 33.83 -19.72 33.79 -19.69594 33.753 C -19.68 33.71 -19.65 33.67 -19.63176 33.63518 C -19.61 33.6 -19.59 33.56 -19.56366 33.51914 C -19.54 33.48 -19.52 33.45 -19.49934 33.41672 C -19.48 33.38 -19.45 33.35 -19.43197 33.31585 C -19.41 33.28 -19.39 33.25 -19.36162 33.21658 C -19.34 33.18 -19.31 33.15 -19.28835 33.11894 C -19.26 33.09 -19.24 33.05 -19.21221 33.023 C -19.19 32.99 -19.16 32.96 -19.13328 32.92878 C -19.11 32.9 -19.08 32.87 -19.0516 32.83633 C -19.02 32.81 -19 32.78 -18.96724 32.74568 C -18.94 32.72 -18.91 32.69 -18.88025 32.65687 C -18.85 32.63 -18.82 32.6 -18.79071 32.56994 C -18.76 32.54 -18.73 32.51 -18.69866 32.48492 C -18.67 32.46 -18.64 32.43 -18.60417 32.40183 C -18.54 32.35 -18.48 32.29 -18.40811 32.24158 C -18.34 32.19 -18.27 32.14 -18.20301 32.08938" />
    <path d="M 6.0085 -15.11553 L 10.66453 -18.40716" />
    <path d="M 0.23579 -23.28106 L 6.35523 -27.60727" />
    <path d="M -13.14214 35.53208 C -13.14 35.53 -13.14 35.53 -13.14205 35.5263 C -13.14 35.52 -13.14 35.52 -13.1418 35.52056 C -13.14 35.52 -13.14 35.52 -13.1414 35.51491 C -13.14 35.51 -13.14 35.51 -13.14084 35.50941 C -13.14 35.51 -13.14 35.51 -13.14014 35.50411 C -13.14 35.5 -13.14 35.5 -13.13933 35.49906 C -13.14 35.5 -13.14 35.5 -13.13843 35.4943 C -13.14 35.49 -13.14 35.49 -13.13746 35.48987 C -13.14 35.49 -13.14 35.49 -13.13645 35.48583 C -13.14 35.48 -13.14 35.48 -13.13543 35.48221 C -13.14 35.48 -13.13 35.48 -13.13445 35.47905 C -13.13 35.48 -13.13 35.48 -13.13353 35.47638 C -13.13 35.48 -13.13 35.47 -13.13274 35.47426 C -13.13 35.47 -13.13 35.47 -13.1321 35.4727 C -13.13 35.47 -13.13 35.47 -13.13168 35.47175 C -13.13 35.47 -13.13 35.47 -13.13153 35.47144 C -13.13 35.47 -13.13 35.47 -13.13178 35.4719 C -13.13 35.47 -13.13 35.47 -13.13256 35.47331 C -13.13 35.47 -13.13 35.47 -13.13399 35.47568 C -13.13 35.48 -13.14 35.48 -13.13617 35.47904 C -13.14 35.48 -13.14 35.48 -13.13919 35.4834 C -13.14 35.49 -13.14 35.49 -13.14315 35.48873 C -13.14 35.49 -13.15 35.49 -13.14815 35.49504 C -13.15 35.5 -13.15 35.5 -13.15428 35.5023 C -13.16 35.5 -13.16 35.51 -13.16164 35.51047 C -13.16 35.51 -13.17 35.52 -13.1703 35.51952 C -13.17 35.52 -13.18 35.53 -13.18034 35.52938 C -13.18 35.53 -13.19 35.54 -13.19183 35.54 C -13.2 35.54 -13.2 35.55 -13.20482 35.55132 C -13.21 35.56 -13.21 35.56 -13.21937 35.56326 C -13.22 35.57 -13.23 35.57 -13.23551 35.57574 C -13.24 35.58 -13.25 35.58 -13.25326 35.58866" />
    <path d="M -15.14214 35.53208 C -15.14 35.53 -15.14 35.53 -15.14222 35.5263 C -15.14 35.52 -15.14 35.52 -15.14247 35.52056 C -15.14 35.52 -15.14 35.52 -15.14288 35.51491 C -15.14 35.51 -15.14 35.51 -15.14343 35.50941 C -15.14 35.51 -15.14 35.51 -15.14413 35.50411 C -15.14 35.5 -15.14 35.5 -15.14494 35.49906 C -15.15 35.5 -15.15 35.5 -15.14584 35.4943 C -15.15 35.49 -15.15 35.49 -15.14681 35.48987 C -15.15 35.49 -15.15 35.49 -15.14782 35.48583 C -15.15 35.48 -15.15 35.48 -15.14884 35.48221 C -15.15 35.48 -15.15 35.48 -15.14982 35.47905 C -15.15 35.48 -15.15 35.48 -15.15074 35.47638 C -15.15 35.48 -15.15 35.47 -15.15154 35.47426 C -15.15 35.47 -15.15 35.47 -15.15217 35.4727 C -15.15 35.47 -15.15 35.47 -15.15259 35.47175 C -15.15 35.47 -15.15 35.47 -15.15274 35.47144 C -15.15 35.47 -15.15 35.47 -15.15263 35.47164 C -15.15 35.47 -15.15 35.47 -15.15229 35.47227 C -15.15 35.47 -15.15 35.47 -15.15169 35.47333 C -15.15 35.47 -15.15 35.47 -15.15081 35.47483 C -15.15 35.48 -15.15 35.48 -15.1496 35.47677 C -15.15 35.48 -15.15 35.48 -15.14804 35.47915 C -15.15 35.48 -15.15 35.48 -15.14609 35.48198 C -15.15 35.48 -15.14 35.48 -15.14374 35.48525 C -15.14 35.49 -15.14 35.49 -15.14094 35.48897 C -15.14 35.49 -15.14 35.49 -15.13767 35.49313 C -15.14 35.49 -15.14 35.5 -15.13391 35.49771 C -15.13 35.5 -15.13 35.5 -15.12962 35.50272 C -15.13 35.5 -15.13 35.51 -15.12478 35.50814 C -15.12 35.51 -15.12 35.51 -15.11937 35.51396 C -15.12 35.52 -15.12 35.52 -15.11334 35.52016 C -15.11 35.52 -15.11 35.52 -15.10669 35.52673 C -15.1 35.53 -15.1 35.53 -15.09857 35.53442 C -15.1 35.54 -15.09 35.54 -15.08962 35.54252 C -15.09 35.55 -15.08 35.55 -15.07984 35.55099 C -15.08 35.55 -15.07 35.56 -15.0692 35.55981 C -15.07 35.56 -15.06 35.57 -15.05768 35.56894 C -15.05 35.57 -15.05 35.58 -15.04527 35.57834 C -15.04 35.58 -15.04 35.58 -15.03197 35.58798 C -15.03 35.59 -15.02 35.59 -15.01777 35.59783 C -15.01 35.6 -15.01 35.6 -15.00266 35.60785 C -15 35.61 -14.99 35.61 -14.98664 35.618 C -14.98 35.62 -14.98 35.62 -14.96972 35.62824 C -14.96 35.63 -14.96 35.64 -14.95191 35.63855 C -14.93 35.65 -14.9 35.67 -14.87194 35.67959 C -14.22 35.98 -13.35 35.74 -13.25326 35.58866" />
    <path d="M 1.04788 -11.60856 L -2.06339 -9.40901" />
    <path d="M 34.40705 -50.32551 A 10.000000000000004 10.000000000000004 0 0 0 16.8864 -46.87692 A 10.000000000000004 10.000000000000004 0 1 0 34.40705 -50.32551 Z" />
    <path d="M -4.43153 -9.10747 L -3.99866 -9.41349" />
</svg>