<svg version="1.1" xmlns="http://www.w3.org/2000/svg" viewBox="-66.000001 -53.987526620475634 132.000002 158.0883326005833" fill="none" stroke="black" stroke-width="0.6%" vector-effect="non-scaling-stroke">
    <path d="M -45.96194 3.43371 A 65 49.1948 360 0 1 3.65406 -10.89732" />
    <path d="M 14.64115 -9.71087 A 65 49.1948 360 0 1 65 38.21969 A 65 49.1948 360 0 1 -65 38.21969 A 65 49.1948 360 0 1 -45.96194 3.43371" />
    <path d="M -65 53.90601 A 65 49.1948 180 0 0 65 53.90601" />
    <path d="M -27.93072 19.75636 L -13.78858 30.45974 L -10.25305 27.78389" />
    <path d="M 17.32412 33.13558 L 13.08148 36.34659 L 13.08148 33.73221 L 11.31371 -23.81502 A 5 2.31081 232.87999 0 1 10.79561 -22.504" />
    <path d="M 2.47487 28.31906 L 13.08148 36.34659" />
    <path d="M 20.85223 27.4137 A 5 3.78422 180 0 0 21.26346 25.9108" />
    <path d="M 17.32412 33.13558 L 20.85223 27.4137 L 20.85223 26.1065 A 5 3.78422 180 0 0 21.26346 24.60361 L 21.26346 25.9108" />
    <path d="M -27.93072 18.44917 L -13.78858 29.15254 L -10.25305 26.4767 L -10.25305 27.78389" />
    <path d="M -27.93072 19.75636 L -27.93072 18.44917 L -24.39518 15.77332 L -10.25305 26.4767" />
    <path d="M -13.78858 29.15254 L -13.78858 30.45974" />
    <path d="M 15.9099 32.89873 L 15.9099 31.59153 L 14.14214 -25.9557 L 11.31371 -23.81502" />
    <path d="M 15.9099 32.89873 L 17.32412 31.82839 L 20.85223 26.1065" />
    <path d="M 17.32412 33.13558 L 17.32412 31.82839" />
    <path d="M 15.9099 31.59153 L 13.08148 33.73221" />
    <path d="M 2.47487 25.70468 L 2.47487 28.31906" />
    <path d="M 3.81744 -15.96851 L 2.47487 25.70468" />
    <path d="M 21.26346 24.60361 A 5 3.78422 180 0 0 15.79675 20.83591" />
    <path d="M 14.14214 -25.9557 A 5 2.31081 52.87999 0 0 13.40982 -28.50142" />
    <path d="M 9.88947 -32.37435 A 5 2.31081 52.87999 0 0 7.58917 -32.61841" />
    <path d="M 16.34297 25.83056 C 16.4 25.78 16.45 25.73 16.50874 25.68473 C 16.56 25.64 16.62 25.59 16.67381 25.53849 C 16.73 25.49 16.78 25.44 16.83821 25.39189 C 16.89 25.34 16.95 25.29 17.00199 25.24501 C 17.07 25.18 17.15 25.11 17.21874 25.04945 C 17.29 24.98 17.36 24.92 17.43455 24.8536 C 17.51 24.79 17.58 24.72 17.64949 24.65757 C 17.72 24.59 17.79 24.53 17.86363 24.46148 L 10.59287 11.70766" />
    <path d="M 17.09924 31.02564 A 2.25 1.7029 360 0 1 15.9099 32.52745" />
    <path d="M 15.72386 25.53508 A 2.25 1.7029 0 0 1 17.09924 27.10406 L 17.09924 31.02564" />
    <path d="M 17.09924 27.10406 A 2.25 1.7029 0 0 1 15.81925 28.64057" />
    <path d="M 1.64377 -17.1423 A 4 1.84865 52.87999 0 0 1.68362 -17.36268" />
    <path d="M -2.66219 -23.10471 A 4 1.84865 52.87999 0 0 -2.88511 -23.12622" />
    <path d="M 1.17895 -15.22571 A 5 2.31081 52.87999 0 0 -4.85591 -23.19944 L -7.96718 -20.8447 A 5 2.31081 232.87999 0 1 -1.93232 -12.87096 A 5 2.31081 232.87999 0 1 -8.48528 -19.53367 A 5 2.31081 232.87999 0 1 -7.96718 -20.8447" />
    <path d="M 5.38869 -17.15769 A 6 2.77298 52.87999 0 0 5.2271 -21.5941 L 20.82784 -34.76323" />
    <path d="M 1.98017 -25.69784 A 6 2.77298 52.87999 0 0 -1.85315 -26.72617" />
    <path d="M 1.69157 -18.91825 L 20.62924 -34.9042" />
    <path d="M 1.69157 -18.91825 L 5.2271 -21.5941" />
    <path d="M -5.48864 -12.85718 L -4.77372 -13.46067" />
    <path d="M 1.69157 -18.91825 A 6 2.77298 232.87999 0 1 1.85315 -14.48185 L 5.38869 -17.15769" />
    <path d="M 1.85315 -14.48185 A 6 2.77298 232.87999 0 1 0.02744 -14.35419" />
    <path d="M 17.45409 -38.75992 L -1.37029 -22.86959" />
    <path d="M -6.00743 -22.32792 A 6 2.77298 232.87999 0 1 -5.38869 -24.05033 L -1.85315 -26.72617" />
    <path d="M -5.38869 -24.05033 A 6 2.77298 232.87999 0 1 -1.37029 -22.86959" />
    <path d="M -7.92247 -17.33867 L -8.55051 -16.80852" />
    <path d="M -5.48864 -12.85718 A 2.75 1.27095 232.87999 0 1 -5.76503 -12.29816 L -4.70437 -13.10092 A 2.75 1.27095 52.87999 0 0 -4.53521 -13.29864" />
    <path d="M -5.76503 -12.29816 A 2.75 1.27095 232.87999 1 1 -9.08421 -16.68372 L -8.02355 -17.48647" />
    <path d="M -9.08421 -16.68372 A 2.75 1.27095 232.87999 0 1 -8.55051 -16.80852" />
    <path d="M -4.82 -23.22546 A 5 2.31081 232.87999 0 1 -4.7852 -23.25296 A 5 2.31081 232.87999 0 1 1.24967 -15.27922 A 5 2.31081 232.87999 0 1 1.21375 -15.2532" />
    <path d="M -5.48864 -12.85718 L -4.73103 -13.43057" />
    <path d="M -7.99649 -17.50577 A 2.75 1.27095 52.87999 0 0 -8.02355 -17.48647" />
    <path d="M -4.39902 -23.40396 A 5 2.31081 232.87999 0 1 -4.37558 -23.44646" />
    <path d="M 1.54715 -15.62089 A 5 2.31081 232.87999 0 1 1.49989 -15.60987" />
    <path d="M -65 38.21969 L -65 53.90601" />
    <path d="M 65 38.21969 L 65 53.90601" />
    <path d="M 6.00743 -18.8801 L 10.79561 -22.504" />
    <path d="M -0.02744 -26.85384 L 7.58917 -32.61841" />
    <path d="M 1.17895 -15.22571 L -1.93232 -12.87096" />
    <path d="M 34.42107 -49.11271 A 10.000000000000002 10.000000000000002 0 0 0 17.19221 -46.60104 A 10.000000000000002 10.000000000000002 0 1 0 34.42107 -49.11271 Z" />
</svg>