<svg version="1.1" xmlns="http://www.w3.org/2000/svg" viewBox="-51.000001 -50.17760564383163 102.000002 132.4403507389047" fill="none" stroke="black" stroke-width="0.6%" vector-effect="non-scaling-stroke">
    <path d="M -33.58757 8.72329 A 47.5 31.97712 360 0 1 -14.99111 0.99171" />
    <path d="M -3.54496 -0.55341 A 47.5 31.97712 360 0 1 -3.53553 -0.55389" />
    <path d="M 15.22112 1.04365 A 47.5 31.97712 360 0 1 47.24512 28.02636 A 47.5 31.97712 360 1 1 -47.24512 28.02636 A 47.5 31.97712 360 0 1 -33.58757 8.72329" />
    <path d="M -49.73171 44.12032 A 50 33.66013 180 1 0 49.73171 44.12032" />
    <path d="M -15.9099 34.90473 L -5.3033 42.04512 L -2.47487 40.14102" />
    <path d="M 13.08148 29.66844 L 15.9099 27.76434 L 15.9099 26.28542 L 13.08148 28.18953 L 11.31371 -36.59393 A 5 2.61438 236.05146 0 1 10.57042 -34.82636" />
    <path d="M 13.08148 29.66844 L 8.6725 26.70031" />
    <path d="M -7.07107 -24.21725 L -5.3033 40.56621 L -2.47487 38.6621 L -2.47487 40.14102" />
    <path d="M -14.14214 -28.97751 A 5 2.61438 236.05146 0 1 -13.39884 -30.74508 A 5 2.61438 236.05146 0 1 -7.07107 -24.21725 L -4.24264 -26.12136 L -2.47487 38.6621" />
    <path d="M -15.9099 33.42582 L -14.14214 -28.97751" />
    <path d="M -15.9099 34.90473 L -15.9099 33.42582" />
    <path d="M -5.3033 40.56621 L -5.3033 42.04512" />
    <path d="M 14.14214 -38.49804 A 5 2.61438 56.05146 0 0 7.81436 -45.02586" />
    <path d="M 15.9099 26.28542 L 14.14214 -38.49804 L 11.31371 -36.59393" />
    <path d="M 13.08148 29.66844 L 13.08148 28.18953" />
    <path d="M 3.90499 -29.43507 L 3.53553 -16.39286" />
    <path d="M -2.82843 -27.07341 A 5 2.61438 56.05146 0 0 -9.1562 -33.60124 L -13.39884 -30.74508" />
    <path d="M -3.57172 -25.30584 A 5 2.61438 56.05146 0 0 -2.82843 -27.07341" />
    <path d="M 3.53553 -42.14449 A 5 2.61438 236.05146 0 1 3.57172 -42.16971 L 7.81436 -45.02586" />
    <path d="M 3.57172 -42.16971 A 5 2.61438 236.05146 0 1 9.1562 -33.87431 L 10.57042 -34.82636" />
    <path d="M 9.1562 -33.87431 A 5 2.61438 236.05146 0 1 5.88191 -34.68377" />
    <path d="M 4.96784 -40.09586 A 2.5 1.30719 236.05146 0 1 7.76008 -35.94816" />
    <path d="M -1.06066 -30.6436 A 2.5 1.30719 56.05146 0 0 -4.22455 -33.90752 L -5.88191 -32.79178" />
    <path d="M -1.43231 -29.75982 A 2.5 1.30719 56.05146 0 0 -1.06066 -30.6436" />
    <path d="M 0 17.18471 A 9.68246 5.06272 56.05146 0 0 -3.12104 14.9821" />
    <path d="M 0 17.18471 A 9.68246 5.06272 123.94854 0 1 3.53553 14.80458 L 3.53553 -29.18635" />
    <path d="M 4.97884 -30.15799 A 5.75 3.00654 56.05146 0 0 3.53553 -37.56675 L 3.53553 -44.72195 A 2.75 1.43791 56.05146 0 0 0.23203 -49.0404" />
    <path d="M -3.53553 -25.33106 L -3.53553 -0.20797" />
    <path d="M -3.53553 -44.72195 L -3.53553 -37.56675" />
    <path d="M -5.40986 -33.10956 A 5.75 3.00654 236.05146 0 1 -4.97884 -37.31756 L -3.53553 -38.2892" />
    <path d="M -4.97884 -37.31756 A 5.75 3.00654 236.05146 0 1 -3.53553 -37.56675" />
    <path d="M 0 17.18471 L 0 -27.52867" />
    <path d="M 0 -35.18662 A 5.75 3.00654 236.05146 0 1 1.44331 -27.77786 L 4.97884 -30.15799" />
    <path d="M 1.44331 -27.77786 A 5.75 3.00654 236.05146 0 1 0 -27.52867" />
    <path d="M 0 -35.18662 L 0 -42.34182 L 1.06066 -43.05586 A 2.75 1.43791 56.05146 0 0 -2.24284 -47.37431" />
    <path d="M -3.53553 -44.72195 A 2.75 1.43791 236.05146 0 1 -3.3035 -46.66027 L -2.24284 -47.37431" />
    <path d="M -3.3035 -46.66027 A 2.75 1.43791 236.05146 0 1 0 -42.34182" />
    <path d="M -1.76777 -36.245 A 5 2.61438 236.05146 0 1 1.02447 -28.40001 A 5 2.61438 236.05146 0 1 -2.24982 -29.20947" />
    <path d="M -5.04206 -33.35716 A 5 2.61438 236.05146 0 1 -4.56001 -36.69541 A 5 2.61438 236.05146 0 1 -1.76777 -36.245" />
    <path d="M 0 -35.18662 L 3.53553 -37.56675" />
    <path d="M 2.47487 -44.00791 L 3.53553 -44.72195" />
    <path d="M 2.47487 -44.11561 L 2.47487 -44.00791" />
    <path d="M 2.47487 -44.11561 L 1.14162 -43.21806" />
    <path d="M 1.76777 -41.23634 A 0.75 0.39216 303.94854 0 0 1.34893 -40.05959 A 0.75 0.39216 303.94854 0 0 2.1866 -41.3039 A 0.75 0.39216 303.94854 0 0 1.76777 -41.23634 Z" />
    <path d="M -1.23679 -47.40627 A 2.75 1.43791 236.05146 0 1 -0.82863 -48.32636 L 0.23203 -49.0404" />
    <path d="M -0.82863 -48.32636 A 2.75 1.43791 236.05146 0 1 2.47487 -44.00791" />
    <path d="M 1.34067 -28.69351 A 5 2.61438 236.05146 0 1 -1.54272 -29.68549" />
    <path d="M -4.33496 -33.83319 A 5 2.61438 236.05146 0 1 -4.1691 -36.87793" />
    <path d="M -0.68901 -47.37952 A 2.5 1.30719 236.05146 0 1 2.47487 -44.11561" />
    <path d="M 0.97052 -32.29612 A 3 1.56863 236.05146 0 1 -0.97052 -35.17943" />
    <path d="M -1.06066 -30.80536 A 3 1.56863 56.05146 0 0 0.61468 -30.53512 A 3 1.56863 56.05146 0 0 -2.736 -35.51235 A 3 1.56863 56.05146 0 0 -3.11432 -33.85044" />
    <path d="M -1.06744 -30.80994 A 3 1.56863 56.05146 0 0 -1.06066 -30.80536" />
    <path d="M -47.24512 28.02636 L -49.73171 44.12032" />
    <path d="M 47.24512 28.02636 L 49.73171 44.12032" />
    <path d="M -3.57172 -25.30584 L -4.20869 -24.87703" />
    <path d="M -1.43231 -29.75982 L -3.08966 -28.64408" />
    <path d="M 5.40986 -34.36599 L 7.76008 -35.94816" />
    <path d="M 3.53553 -39.13163 L 4.96784 -40.09586" />
    <path d="M -2.6742 31.35738 A 10 10 0 0 0 3.53553 12.36744" />
    <path d="M -0.89282 -47.24232 L -0.68901 -47.37952" />
</svg>