<svg version="1.1" xmlns="http://www.w3.org/2000/svg" viewBox="-66.000001 -53.97444309636536 132.000002 158.0723608924917" fill="none" stroke="black" stroke-width="0.6%" vector-effect="non-scaling-stroke">
    <path d="M -45.96194 3.42295 A 65 49.20095 360 0 1 3.65444 -10.90985" />
    <path d="M 14.64076 -9.72334 A 65 49.20095 360 0 1 65 38.21328 A 65 49.20095 360 0 1 -65 38.21328 A 65 49.20095 360 0 1 -45.96194 3.42295" />
    <path d="M -65 53.89697 A 65 49.20095 180 0 0 65 53.89697" />
    <path d="M -20.14214 27.50856 A 6 4.54163 180 0 0 -8.14214 27.50856" />
    <path d="M -20.06921 25.69831 L -27.93072 19.74764 L -27.93072 18.44067 L -19.72127 24.65471" />
    <path d="M 17.32412 33.12854 L 13.08148 36.33995 L 13.08148 33.726 L 11.31371 -23.81197 A 5 2.31043 232.87655 0 1 10.79585 -22.50147" />
    <path d="M 2.47487 28.31141 L 13.08148 36.33995" />
    <path d="M 20.85223 27.40593 A 5 3.78469 180 0 0 21.26346 25.90285" />
    <path d="M 17.32412 33.12854 L 20.85223 27.40593 L 20.85223 26.09896 A 5 3.78469 180 0 0 21.26346 24.59588 L 21.26346 25.90285" />
    <path d="M -24.39518 15.76449 L -16.28917 21.90024" />
    <path d="M -27.93072 18.44067 L -24.39518 15.76449" />
    <path d="M -8.14214 26.46298 A 6 4.54163 360 0 1 -20.14214 26.46298 L -20.14214 27.50856" />
    <path d="M -19.72161 24.6554 Q -19.72 24.66 -19.72127 24.65471" />
    <path d="M 15.9099 32.89203 L 15.9099 31.58506 L 14.14214 -25.95291 L 11.31371 -23.81197" />
    <path d="M 15.9099 32.89203 L 17.32412 31.82156 L 20.85223 26.09896" />
    <path d="M 17.32412 33.12854 L 17.32412 31.82156" />
    <path d="M 15.9099 31.58506 L 13.08148 33.726" />
    <path d="M 2.47487 25.69747 L 2.47487 28.31141" />
    <path d="M 3.81733 -15.96499 L 2.47487 25.69747" />
    <path d="M 21.26346 24.59588 A 5 3.78469 180 0 0 15.79592 20.82777" />
    <path d="M -17.39483 23.08602 A 4.6 3.48191 360 1 1 -18.17902 23.87878 A 4.6 3.48191 360 0 1 -17.39483 23.08602 Z" />
    <path d="M -19.71823 24.64844 A 5.94164 4.49745 180 0 0 -19.72127 24.65471" />
    <path d="M 14.14214 -25.95291 A 5 2.31043 52.87655 0 0 13.41122 -28.49563" />
    <path d="M 9.89336 -32.36923 A 5 2.31043 52.87655 0 0 7.58893 -32.61578" />
    <path d="M 16.34223 25.82364 C 16.4 25.78 16.45 25.73 16.50819 25.67762 C 16.56 25.63 16.62 25.58 16.67344 25.5312 C 16.73 25.48 16.78 25.43 16.83803 25.38443 C 16.89 25.34 16.95 25.29 17.00199 25.23736 C 17.07 25.17 17.15 25.11 17.21874 25.04178 C 17.29 24.98 17.36 24.91 17.43455 24.8459 C 17.51 24.78 17.58 24.72 17.64949 24.64985 C 17.72 24.58 17.79 24.52 17.86363 24.45373 L 10.59287 11.70366" />
    <path d="M 17.09924 31.01871 A 2.25 1.70311 360 0 1 15.9099 32.52071" />
    <path d="M -12.44508 26.83267 A 2.4 1.81665 360 0 1 -16.24833 24.67715 A 2.4 1.81665 360 1 1 -12.44508 26.83267 Z" />
    <path d="M 15.72383 25.52861 A 2.25 1.70311 360 0 1 17.09924 27.09779 L 17.09924 31.01871" />
    <path d="M 17.09924 27.09779 A 2.25 1.70311 360 0 1 15.81925 28.6345" />
    <path d="M -15.13538 26.47824 A 1.05836 0.80111 360 1 1 -13.14889 26.47824 C -13.15 26.48 -13.15 26.48 -13.15136 26.4831 C -13.15 26.48 -13.15 26.49 -13.15437 26.48863 C -13.16 26.49 -13.16 26.49 -13.158 26.49484 C -13.16 26.5 -13.16 26.5 -13.16232 26.50173 C -13.16 26.5 -13.17 26.51 -13.16739 26.50931 C -13.17 26.51 -13.17 26.51 -13.1733 26.51757 C -13.18 26.52 -13.18 26.52 -13.18009 26.52648 C -13.18 26.53 -13.19 26.53 -13.18784 26.53604 C -13.19 26.54 -13.19 26.54 -13.19659 26.54621 C -13.2 26.55 -13.2 26.55 -13.20641 26.55697 C -13.21 26.56 -13.21 26.56 -13.21733 26.56828 C -13.22 26.57 -13.23 26.58 -13.2294 26.58008 C -13.23 26.58 -13.24 26.59 -13.24268 26.59234 C -13.25 26.6 -13.25 26.6 -13.25718 26.605 C -13.26 26.61 -13.27 26.61 -13.27295 26.618 C -13.28 26.62 -13.28 26.63 -13.29003 26.63128" />
    <path d="M 1.64374 -17.13844 A 4 1.84834 52.87655 0 0 1.6836 -17.35872" />
    <path d="M -2.66299 -23.10105 A 4 1.84834 52.87655 0 0 -2.88582 -23.12249" />
    <path d="M 1.17919 -15.22226 A 5 2.31043 52.87655 0 0 -4.85615 -23.19563 L -7.96742 -20.84059 A 5 2.31043 232.87655 1 1 -1.93208 -12.86722 A 5 2.31043 232.87655 0 1 -8.48528 -19.53008 A 5 2.31043 232.87655 0 1 -7.96742 -20.84059" />
    <path d="M 5.38897 -17.15462 A 6 2.77251 52.87655 0 0 5.2271 -21.5901 L 20.82561 -34.75169" />
    <path d="M 1.98112 -25.69311 A 6 2.77251 52.87655 0 0 -1.85344 -26.72267" />
    <path d="M 1.69157 -18.91392 L 20.62804 -34.89199" />
    <path d="M 1.69157 -18.91392 L 5.2271 -21.5901" />
    <path d="M -5.48864 -12.85546 L -4.77463 -13.45793" />
    <path d="M 1.69157 -18.91392 A 6 2.77251 232.87655 0 1 1.85344 -14.47845 L 5.38897 -17.15462" />
    <path d="M 1.85344 -14.47845 A 6 2.77251 232.87655 0 1 0.02794 -14.35083" />
    <path d="M 17.45344 -38.74822 L -1.37029 -22.86528" />
    <path d="M -6.00741 -22.3242 A 6 2.77251 232.87655 0 1 -5.38897 -24.04649 L -1.85344 -26.72267" />
    <path d="M -5.38897 -24.04649 A 6 2.77251 232.87655 0 1 -1.37029 -22.86528" />
    <path d="M -7.92293 -17.33634 L -8.55051 -16.80682" />
    <path d="M -5.48864 -12.85546 A 2.75 1.27073 232.87655 0 1 -5.7649 -12.29669 L -4.70424 -13.09955 A 2.75 1.27073 52.87655 0 0 -4.53598 -13.29572" />
    <path d="M -5.7649 -12.29669 A 2.75 1.27073 232.87655 0 1 -9.08434 -16.68205 L -8.02368 -17.4849" />
    <path d="M -9.08434 -16.68205 A 2.75 1.27073 232.87655 0 1 -8.55051 -16.80682" />
    <path d="M -4.82024 -23.22166 A 5 2.31043 232.87655 0 1 -4.78544 -23.24915 A 5 2.31043 232.87655 0 1 1.24991 -15.27578 A 5 2.31043 232.87655 0 1 1.21399 -15.24975" />
    <path d="M -5.48864 -12.85546 L -4.73223 -13.42802" />
    <path d="M -7.99712 -17.50387 A 2.75 1.27073 52.87655 0 0 -8.02368 -17.4849" />
    <path d="M -4.39923 -23.40015 A 5 2.31043 232.87655 0 1 -4.37579 -23.44266" />
    <path d="M 1.54736 -15.61751 A 5 2.31043 232.87655 0 1 1.50009 -15.60649" />
    <path d="M -65 38.21328 L -65 53.89697" />
    <path d="M 65 38.21328 L 65 53.89697" />
    <path d="M -8.14214 26.46298 L -8.14214 27.50856" />
    <path d="M -18.23977 22.88463 C -18.17 22.83 -18.1 22.78 -18.02703 22.73117 C -17.95 22.68 -17.88 22.63 -17.80597 22.58649 C -17.73 22.54 -17.65 22.49 -17.57709 22.45079 C -17.5 22.41 -17.42 22.36 -17.34091 22.3243 C -17.26 22.28 -17.18 22.24 -17.09794 22.20721 C -17.02 22.17 -16.93 22.13 -16.8487 22.0997 C -16.76 22.07 -16.68 22.03 -16.59373 22.00194 C -16.51 21.97 -16.42 21.94 -16.33357 21.91408 C -16.25 21.89 -16.16 21.86 -16.06877 21.83627 C -15.98 21.81 -15.89 21.79 -15.79988 21.76861 C -15.71 21.75 -15.62 21.73 -15.52748 21.71123 C -15.44 21.69 -15.34 21.68 -15.25214 21.66421 C -15.16 21.65 -15.07 21.64 -14.97444 21.62762 C -14.88 21.62 -14.79 21.61 -14.69498 21.60155 C -14.6 21.59 -14.51 21.59 -14.41434 21.58602 C -14.32 21.58 -14.23 21.58 -14.13314 21.58107 C -14.04 21.58 -13.95 21.58 -13.85116 21.58673 C -13.76 21.59 -13.66 21.6 -13.56979 21.60302 C -13.48 21.61 -13.38 21.62 -13.28963 21.62992 C -13.2 21.64 -13.1 21.65 -13.0113 21.66739 C -12.92 21.68 -12.83 21.7 -12.73538 21.71534 C -12.64 21.73 -12.55 21.75 -12.46246 21.77372 C -12.37 21.79 -12.28 21.82 -12.19313 21.84241 C -12.1 21.87 -12.02 21.89 -11.92795 21.92131 C -11.84 21.95 -11.75 21.98 -11.66748 22.0103 C -11.58 22.04 -11.5 22.07 -11.41228 22.10923 C -11.33 22.14 -11.24 22.18 -11.1629 22.21796 C -11.08 22.26 -11 22.3 -10.91987 22.3363 C -10.6 22.5 -10.3 22.69 -10.02171 22.90196 C -9.26 23.45 -8.2 24.62 -8.14214 26.46298" />
    <path d="M -19.71823 24.64844 C -19.7 24.61 -19.68 24.56 -19.65426 24.52203 C -19.63 24.48 -19.61 24.44 -19.58611 24.39741 C -19.56 24.36 -19.54 24.32 -19.51386 24.27467 C -19.49 24.23 -19.46 24.19 -19.43759 24.15388 C -19.41 24.11 -19.38 24.07 -19.35739 24.03515 C -19.33 24 -19.3 23.96 -19.27333 23.91854 C -19.24 23.88 -19.22 23.84 -19.18551 23.80414 C -19.16 23.77 -19.13 23.73 -19.094 23.69201 C -19.06 23.66 -19.03 23.62 -18.99889 23.58223 C -18.97 23.55 -18.93 23.51 -18.90027 23.47486 C -18.87 23.44 -18.83 23.4 -18.79823 23.36996 C -18.76 23.34 -18.73 23.3 -18.69285 23.26761 C -18.66 23.23 -18.62 23.2 -18.58422 23.16785 C -18.55 23.14 -18.51 23.1 -18.47244 23.07073 C -18.43 23.04 -18.4 23.01 -18.35759 22.97631 C -18.32 22.95 -18.28 22.91 -18.23977 22.88463" />
    <path d="M -19.72161 24.6554 C -19.74 24.69 -19.76 24.73 -19.77163 24.76242 C -19.79 24.8 -19.8 24.83 -19.81865 24.87056 C -19.83 24.91 -19.85 24.94 -19.86261 24.97975 C -19.88 25.02 -19.89 25.05 -19.90348 25.08993 C -19.92 25.13 -19.93 25.16 -19.94123 25.20103 C -19.95 25.24 -19.96 25.28 -19.97582 25.31298 C -19.99 25.35 -20 25.39 -20.00721 25.4257 C -20.02 25.46 -20.03 25.5 -20.03537 25.53914 C -20.04 25.58 -20.05 25.62 -20.06029 25.65321 C -20.07 25.69 -20.08 25.73 -20.08194 25.76784 C -20.09 25.81 -20.09 25.84 -20.10029 25.88295 C -20.11 25.92 -20.11 25.96 -20.11534 25.99847 C -20.12 26.04 -20.12 26.08 -20.12705 26.11432 C -20.13 26.15 -20.13 26.19 -20.13543 26.2304 C -20.14 26.27 -20.14 26.31 -20.14046 26.34665 C -20.14 26.39 -20.14 26.42 -20.14214 26.46298" />
    <path d="M 6.00741 -18.87692 L 10.79585 -22.50147" />
    <path d="M -0.02794 -26.85028 L 7.58893 -32.61578" />
    <path d="M -15.13538 26.47824 C -15.13 26.48 -15.13 26.48 -15.13296 26.48304 C -15.13 26.48 -15.13 26.49 -15.12999 26.48849 C -15.13 26.49 -15.13 26.49 -15.12642 26.4946 C -15.13 26.5 -15.12 26.5 -15.12218 26.50138 C -15.12 26.5 -15.12 26.51 -15.1172 26.50882 C -15.12 26.51 -15.11 26.51 -15.11143 26.51693 C -15.11 26.52 -15.11 26.52 -15.1048 26.52569 C -15.1 26.53 -15.1 26.53 -15.09724 26.53507 C -15.09 26.54 -15.09 26.54 -15.08971 26.54391 C -15.09 26.55 -15.08 26.55 -15.08137 26.55321 C -15.08 26.56 -15.08 26.56 -15.07218 26.56295 C -15.07 26.57 -15.07 26.57 -15.06212 26.57309 C -15.06 26.58 -15.05 26.58 -15.05115 26.5836 C -15.05 26.59 -15.04 26.59 -15.03925 26.59444 C -15.04 26.6 -15.03 26.6 -15.02639 26.60558 C -15.02 26.61 -15.02 26.61 -15.01256 26.61698 C -15.01 26.62 -15 26.62 -14.99775 26.6286 C -14.99 26.63 -14.99 26.64 -14.98194 26.6404 C -14.98 26.64 -14.97 26.65 -14.96513 26.65234 C -14.96 26.66 -14.95 26.66 -14.94732 26.66437 C -14.94 26.67 -14.93 26.67 -14.9285 26.67645 C -14.92 26.68 -14.92 26.68 -14.90869 26.68853 C -14.9 26.69 -14.89 26.7 -14.8879 26.70055 C -14.88 26.7 -14.87 26.71 -14.86613 26.71248 C -14.85 26.72 -14.84 26.73 -14.81983 26.73591 C -14.8 26.74 -14.79 26.75 -14.7698 26.75847 C -14.74 26.77 -14.7 26.79 -14.6597 26.7997 C -14.58 26.83 -14.5 26.85 -14.40813 26.85938 C -14.23 26.89 -14.04 26.89 -13.85866 26.85659 C -13.61 26.82 -13.4 26.72 -13.29003 26.63128" />
    <path d="M 1.17919 -15.22226 L -1.93208 -12.86722" />
    <path d="M 34.42108 -49.09961 A 10 10 0 0 0 17.19297 -46.58993 A 10 10 0 1 0 34.42108 -49.09961 Z" />
</svg>