<svg version="1.1" xmlns="http://www.w3.org/2000/svg" viewBox="-51.000001 -50.17760564383163 102.000002 132.4403507389047" fill="none" stroke="black" stroke-width="0.6%" vector-effect="non-scaling-stroke">
    <path d="M -33.58757 8.72329 A 47.5 31.97712 360 0 1 -15.68927 1.1521" />
    <path d="M -4.26397 -0.51349 A 47.5 31.97712 360 0 1 -3.53553 -0.55389" />
    <path d="M 3.53553 -0.55389 A 47.5 31.97712 360 0 1 3.78011 -0.54117" />
    <path d="M 15.94584 1.2131 A 47.5 31.97712 360 0 1 47.24512 28.02636 A 47.5 31.97712 360 1 1 -47.24512 28.02636 A 47.5 31.97712 360 0 1 -33.58757 8.72329" />
    <path d="M -49.73171 44.12032 A 50 33.66013 180 1 0 49.73171 44.12032" />
    <path d="M -16.61701 35.38076 L -6.01041 42.52115 L -3.18198 40.61705" />
    <path d="M 13.78858 29.19242 L 16.61701 27.28831 L 16.61701 25.8094 L 13.78858 27.7135 L 12.02082 -37.06996 A 5 2.61438 236.05146 0 1 11.27752 -35.30239" />
    <path d="M 13.78858 29.19242 L 9.04045 25.99596" />
    <path d="M -7.77817 -23.74123 L -6.01041 41.04223 L -3.18198 39.13813 L -3.18198 40.61705" />
    <path d="M -14.84924 -28.50149 A 5 2.61438 236.05146 0 1 -14.10595 -30.26905 A 5 2.61438 236.05146 0 1 -7.77817 -23.74123 L -4.94975 -25.64533 L -3.18198 39.13813" />
    <path d="M -16.61701 33.90184 L -14.84924 -28.50149" />
    <path d="M -16.61701 35.38076 L -16.61701 33.90184" />
    <path d="M -6.01041 41.04223 L -6.01041 42.52115" />
    <path d="M 14.84924 -38.97406 A 5 2.61438 56.05146 0 0 8.52147 -45.50189" />
    <path d="M 16.61701 25.8094 L 14.84924 -38.97406 L 12.02082 -37.06996" />
    <path d="M 13.78858 29.19242 L 13.78858 27.7135" />
    <path d="M 4.6121 -29.9111 L 3.53553 8.09244" />
    <path d="M -3.53553 -26.59738 A 5 2.61438 56.05146 0 0 -9.86331 -33.12521 L -14.10595 -30.26905" />
    <path d="M -4.27883 -24.82982 A 5 2.61438 56.05146 0 0 -3.53553 -26.59738" />
    <path d="M 3.53553 -40.87817 A 5 2.61438 236.05146 0 1 4.27883 -42.64573 L 8.52147 -45.50189" />
    <path d="M 4.27883 -42.64573 A 5 2.61438 236.05146 0 1 9.86331 -34.35034 L 11.27752 -35.30239" />
    <path d="M 9.86331 -34.35034 A 5 2.61438 236.05146 0 1 6.58901 -35.15979" />
    <path d="M 3.79677 -39.30749 A 5 2.61438 236.05146 0 1 3.53553 -40.87817" />
    <path d="M 5.67495 -40.57188 A 2.5 1.30719 236.05146 0 1 8.46719 -36.42419" />
    <path d="M -1.76777 -30.16758 A 2.5 1.30719 56.05146 0 0 -4.93165 -33.43149 L -6.58901 -32.31575" />
    <path d="M -2.13941 -29.2838 A 2.5 1.30719 56.05146 0 0 -1.76777 -30.16758" />
    <path d="M 3.53553 -37.96655 A 2.5 1.30719 236.05146 0 1 5.28697 -34.68815" />
    <path d="M 0 17.18471 A 9.68246 5.06272 56.05146 0 0 -3.53553 14.80458" />
    <path d="M 0 17.18471 A 9.68246 5.06272 123.94854 0 1 3.53553 14.80458 L 3.53553 -29.18635" />
    <path d="M 4.97884 -30.15799 A 5.75 3.00654 56.05146 0 0 3.53553 -37.56675 L 3.53553 -44.72195 A 2.75 1.43791 56.05146 0 0 0.23203 -49.0404" />
    <path d="M -3.53553 -28.34392 L -3.53553 14.80458" />
    <path d="M -3.53553 -44.72195 L -3.53553 -37.56675" />
    <path d="M -5.40986 -33.10956 A 5.75 3.00654 236.05146 0 1 -4.97884 -37.31756 L -3.53553 -38.2892" />
    <path d="M -4.97884 -37.31756 A 5.75 3.00654 236.05146 0 1 -3.53553 -37.56675" />
    <path d="M 0 17.18471 L 0 -27.52867" />
    <path d="M 0 -35.18662 A 5.75 3.00654 236.05146 0 1 1.44331 -27.77786 L 4.97884 -30.15799" />
    <path d="M 1.44331 -27.77786 A 5.75 3.00654 236.05146 0 1 0 -27.52867" />
    <path d="M 0 -35.18662 L 0 -42.34182 L 1.06066 -43.05586 A 2.75 1.43791 56.05146 0 0 -2.24284 -47.37431" />
    <path d="M -3.53553 -44.72195 A 2.75 1.43791 236.05146 0 1 -3.3035 -46.66027 L -2.24284 -47.37431" />
    <path d="M -3.3035 -46.66027 A 2.75 1.43791 236.05146 0 1 0 -42.34182" />
    <path d="M -1.76777 -36.245 A 5 2.61438 236.05146 0 1 1.02447 -28.40001 A 5 2.61438 236.05146 0 1 -2.24982 -29.20947" />
    <path d="M -5.04206 -33.35716 A 5 2.61438 236.05146 0 1 -4.56001 -36.69541 A 5 2.61438 236.05146 0 1 -1.76777 -36.245" />
    <path d="M 0 -35.18662 L 3.53553 -37.56675" />
    <path d="M 2.47487 -44.00791 L 3.53553 -44.72195" />
    <path d="M 2.47487 -44.11561 L 2.47487 -44.00791" />
    <path d="M 2.47487 -44.11561 L 1.14162 -43.21806" />
    <path d="M 1.76777 -41.23634 A 0.75 0.39216 303.94854 0 0 1.34893 -40.05959 A 0.75 0.39216 303.94854 0 0 2.1866 -41.3039 A 0.75 0.39216 303.94854 0 0 1.76777 -41.23634 Z" />
    <path d="M -1.23679 -47.40627 A 2.75 1.43791 236.05146 0 1 -0.82863 -48.32636 L 0.23203 -49.0404" />
    <path d="M -0.82863 -48.32636 A 2.75 1.43791 236.05146 0 1 2.47487 -44.00791" />
    <path d="M 1.34067 -28.69351 A 5 2.61438 236.05146 0 1 -1.78902 -29.89609" />
    <path d="M -4.23252 -33.52575 A 5 2.61438 236.05146 0 1 -4.1691 -36.87793" />
    <path d="M -0.68901 -47.37952 A 2.5 1.30719 236.05146 0 1 2.47487 -44.11561" />
    <path d="M 0.97052 -32.29612 A 3 1.56863 236.05146 0 1 -0.97052 -35.17943" />
    <path d="M -1.06066 -30.80536 A 3 1.56863 56.05146 0 0 0.61468 -30.53512 A 3 1.56863 56.05146 0 0 -2.736 -35.51235 A 3 1.56863 56.05146 0 0 -1.06066 -30.80536 Z" />
    <path d="M -47.24512 28.02636 L -49.73171 44.12032" />
    <path d="M 47.24512 28.02636 L 49.73171 44.12032" />
    <path d="M -4.27883 -24.82982 L -4.91579 -24.40101" />
    <path d="M -2.13941 -29.2838 L -3.79677 -28.16806" />
    <path d="M 5.40986 -34.36599 L 8.46719 -36.42419" />
    <path d="M 3.53553 -39.13163 L 5.67495 -40.57188" />
    <path d="M -3.40062 31.12561 A 10 10 0 0 0 3.53553 12.36744" />
    <path d="M -3.53553 12.36744 A 10 10 0 0 0 -3.9084 12.51699" />
    <path d="M -0.89282 -47.24232 L -0.68901 -47.37952" />
</svg>