<svg version="1.1" xmlns="http://www.w3.org/2000/svg" viewBox="-66.000001 -54.00053306758771 132.000002 158.10420827111818" fill="none" stroke="black" stroke-width="0.6%" vector-effect="non-scaling-stroke">
    <path d="M -45.96194 3.44441 A 65 49.18868 360 0 1 3.65369 -10.88486" />
    <path d="M 14.64154 -9.69848 A 65 49.18868 360 0 1 65 38.22606 A 65 49.18868 360 0 1 -65 38.22606 A 65 49.18868 360 0 1 -45.96194 3.44441" />
    <path d="M -65 53.91499 A 65 49.18868 180 0 0 65 53.91499" />
    <path d="M -20.14214 27.52401 A 6 4.54049 180 0 0 -8.14214 27.52401" />
    <path d="M -20.06933 25.71413 L -27.93072 19.76503 L -27.93072 18.45762 L -19.72127 24.6701" />
    <path d="M 17.32412 33.14258 L 13.08148 36.3532 L 13.08148 33.73838 L 11.31371 -23.81806 A 5 2.3112 232.88342 0 1 10.79537 -22.50652" />
    <path d="M 2.47487 28.32666 L 13.08148 36.3532" />
    <path d="M 20.85223 27.42141 A 5 3.78374 180 0 0 21.26346 25.9187" />
    <path d="M 17.32412 33.14258 L 20.85223 27.42141 L 20.85223 26.114 A 5 3.78374 180 0 0 21.26346 24.61129 L 21.26346 25.9187" />
    <path d="M -24.39518 15.7821 L -16.28934 21.91619" />
    <path d="M -27.93072 18.45762 L -24.39518 15.7821" />
    <path d="M -8.14214 26.47808 A 6 4.54049 360 0 1 -20.14214 26.47808 L -20.14214 27.52401" />
    <path d="M -19.72156 24.6707 Q -19.72 24.67 -19.72127 24.6701" />
    <path d="M 15.9099 32.90538 L 15.9099 31.59797 L 14.14214 -25.95847 L 11.31371 -23.81806" />
    <path d="M 15.9099 32.90538 L 17.32412 31.83517 L 20.85223 26.114" />
    <path d="M 17.32412 33.14258 L 17.32412 31.83517" />
    <path d="M 15.9099 31.59797 L 13.08148 33.73838" />
    <path d="M 2.47487 25.71184 L 2.47487 28.32666" />
    <path d="M 3.81755 -15.97201 L 2.47487 25.71184" />
    <path d="M 21.26346 24.61129 A 5 3.78374 180 0 0 15.79758 20.84401" />
    <path d="M -17.39483 23.10142 A 4.6 3.48105 360 1 1 -18.17902 23.89399 A 4.6 3.48105 360 0 1 -17.39483 23.10142 Z" />
    <path d="M -19.71867 24.66474 A 5.94164 4.49633 180 0 0 -19.72127 24.6701" />
    <path d="M 14.14214 -25.95847 A 5 2.3112 52.88342 0 0 13.40843 -28.50717" />
    <path d="M 9.8856 -32.37944 A 5 2.3112 52.88342 0 0 7.58941 -32.62103" />
    <path d="M 16.34371 25.83745 C 16.4 25.79 16.45 25.74 16.50929 25.69179 C 16.56 25.64 16.62 25.59 16.67417 25.54573 C 16.73 25.5 16.78 25.45 16.83839 25.39932 C 16.89 25.35 16.95 25.3 17.00199 25.25261 C 17.07 25.19 17.15 25.12 17.21874 25.05708 C 17.29 24.99 17.36 24.93 17.43455 24.86125 C 17.51 24.8 17.58 24.73 17.64949 24.66525 C 17.72 24.6 17.79 24.53 17.86363 24.46918 L 10.59287 11.71164" />
    <path d="M 17.09924 31.03252 A 2.25 1.70269 360 0 1 15.9099 32.53415" />
    <path d="M -12.44508 26.84714 A 2.4 1.8162 360 0 1 -16.24833 24.69216 A 2.4 1.8162 360 1 1 -12.44508 26.84714 Z" />
    <path d="M 15.72389 25.54152 A 2.25 1.70269 360 0 1 17.09924 27.11029 L 17.09924 31.03252" />
    <path d="M 17.09924 27.11029 A 2.25 1.70269 360 0 1 15.81926 28.64661" />
    <path d="M -15.13546 26.49302 A 1.05836 0.80091 360 1 1 -13.14881 26.49302 C -13.15 26.49 -13.15 26.5 -13.15128 26.49786 C -13.15 26.5 -13.15 26.5 -13.15428 26.50337 C -13.16 26.51 -13.16 26.51 -13.15789 26.50957 C -13.16 26.51 -13.16 26.51 -13.1622 26.51645 C -13.16 26.52 -13.17 26.52 -13.16727 26.52402 C -13.17 26.53 -13.17 26.53 -13.17316 26.53227 C -13.18 26.54 -13.18 26.54 -13.17995 26.54117 C -13.18 26.54 -13.18 26.55 -13.18769 26.55072 C -13.19 26.55 -13.19 26.56 -13.19644 26.56089 C -13.2 26.56 -13.2 26.57 -13.20625 26.57165 C -13.21 26.58 -13.21 26.58 -13.21717 26.58295 C -13.22 26.59 -13.23 26.59 -13.22925 26.59475 C -13.23 26.6 -13.24 26.6 -13.24252 26.60701 C -13.25 26.61 -13.25 26.62 -13.25703 26.61968 C -13.26 26.62 -13.27 26.63 -13.27281 26.63268 C -13.28 26.64 -13.28 26.64 -13.28989 26.64595" />
    <path d="M 1.6438 -17.14615 A 4 1.84896 52.88342 0 0 1.68364 -17.36663" />
    <path d="M -2.6614 -23.10834 A 4 1.84896 52.88342 0 0 -2.88441 -23.12991" />
    <path d="M 1.17872 -15.22913 A 5 2.3112 52.88342 0 0 -4.85567 -23.20323 L -7.96694 -20.84878 A 5 2.3112 232.88342 1 1 -1.93255 -12.87468 A 5 2.3112 232.88342 0 1 -8.48528 -19.53724 A 5 2.3112 232.88342 0 1 -7.96694 -20.84878" />
    <path d="M 5.3884 -17.16075 A 6 2.77344 52.88342 0 0 5.2271 -21.59807 L 20.83005 -34.7747" />
    <path d="M 1.97923 -25.70254 A 6 2.77344 52.88342 0 0 -1.85287 -26.72966" />
    <path d="M 1.69157 -18.92256 L 20.63042 -34.91635" />
    <path d="M 1.69157 -18.92256 L 5.2271 -21.59807" />
    <path d="M -5.48864 -12.8589 L -4.77282 -13.46341" />
    <path d="M 1.69157 -18.92256 A 6 2.77344 232.88342 0 1 1.85287 -14.48523 L 5.3884 -17.16075" />
    <path d="M 1.85287 -14.48523 A 6 2.77344 232.88342 0 1 0.02694 -14.35753" />
    <path d="M 17.45473 -38.77155 L -1.37029 -22.87388" />
    <path d="M -6.00745 -22.33162 A 6 2.77344 232.88342 0 1 -5.3884 -24.05415 L -1.85287 -26.72966" />
    <path d="M -5.3884 -24.05415 A 6 2.77344 232.88342 0 1 -1.37029 -22.87388" />
    <path d="M -7.92201 -17.34098 L -8.55051 -16.81022" />
    <path d="M -5.48864 -12.8589 A 2.75 1.27116 232.88342 0 1 -5.76516 -12.29962 L -4.7045 -13.10228 A 2.75 1.27116 52.88342 0 0 -4.53444 -13.30155" />
    <path d="M -5.76516 -12.29962 A 2.75 1.27116 232.88342 0 1 -9.08408 -16.68537 L -8.02342 -17.48803" />
    <path d="M -9.08408 -16.68537 A 2.75 1.27116 232.88342 0 1 -8.55051 -16.81022" />
    <path d="M -4.81976 -23.22925 A 5 2.3112 232.88342 0 1 -4.78496 -23.25674 A 5 2.3112 232.88342 0 1 1.24943 -15.28264 A 5 2.3112 232.88342 0 1 1.21352 -15.25662" />
    <path d="M -5.48864 -12.8589 L -4.72984 -13.43312" />
    <path d="M -7.99587 -17.50766 A 2.75 1.27116 52.88342 0 0 -8.02342 -17.48803" />
    <path d="M -4.39882 -23.40775 A 5 2.3112 232.88342 0 1 -4.37537 -23.45023" />
    <path d="M 1.54694 -15.62425 A 5 2.3112 232.88342 0 1 1.49968 -15.61322" />
    <path d="M -65 38.22606 L -65 53.91499" />
    <path d="M 65 38.22606 L 65 53.91499" />
    <path d="M -8.14214 26.47808 L -8.14214 27.52401" />
    <path d="M -18.23964 22.90024 C -18.17 22.85 -18.1 22.8 -18.02692 22.74684 C -17.95 22.7 -17.88 22.65 -17.80589 22.60221 C -17.73 22.56 -17.65 22.51 -17.57705 22.46656 C -17.5 22.42 -17.42 22.38 -17.3409 22.34011 C -17.26 22.3 -17.18 22.26 -17.09796 22.22306 C -17.02 22.19 -16.93 22.15 -16.84876 22.11559 C -16.76 22.08 -16.68 22.05 -16.59383 22.01786 C -16.51 21.99 -16.42 21.96 -16.33372 21.93003 C -16.25 21.9 -16.16 21.88 -16.06896 21.85224 C -15.98 21.83 -15.89 21.81 -15.80012 21.7846 C -15.71 21.76 -15.62 21.74 -15.52777 21.72722 C -15.44 21.71 -15.34 21.69 -15.25247 21.68021 C -15.16 21.67 -15.07 21.65 -14.97482 21.64363 C -14.88 21.63 -14.79 21.62 -14.6954 21.61754 C -14.6 21.61 -14.51 21.61 -14.4148 21.602 C -14.32 21.6 -14.23 21.6 -14.13365 21.59704 C -14.04 21.6 -13.95 21.6 -13.85172 21.60267 C -13.76 21.61 -13.66 21.61 -13.57038 21.61894 C -13.48 21.63 -13.38 21.64 -13.29027 21.64581 C -13.2 21.66 -13.1 21.67 -13.01197 21.68323 C -12.92 21.7 -12.83 21.71 -12.73609 21.73115 C -12.64 21.75 -12.55 21.77 -12.4632 21.78947 C -12.37 21.81 -12.28 21.83 -12.1939 21.85811 C -12.1 21.88 -12.02 21.91 -11.92875 21.93695 C -11.84 21.96 -11.75 21.99 -11.66831 22.02588 C -11.58 22.06 -11.5 22.09 -11.41313 22.12475 C -11.33 22.16 -11.25 22.2 -11.16377 22.2334 C -11.08 22.27 -11 22.31 -10.92075 22.35167 C -10.6 22.52 -10.3 22.7 -10.0226 22.91699 C -9.26 23.47 -8.2 24.64 -8.14214 26.47808" />
    <path d="M -19.71867 24.66474 C -19.7 24.62 -19.68 24.58 -19.65469 24.53828 C -19.63 24.5 -19.61 24.45 -19.58653 24.4136 C -19.56 24.37 -19.54 24.33 -19.51427 24.2908 C -19.49 24.25 -19.46 24.21 -19.43798 24.16997 C -19.41 24.13 -19.39 24.09 -19.35776 24.05118 C -19.33 24.01 -19.3 23.97 -19.27367 23.93453 C -19.25 23.9 -19.22 23.86 -19.18582 23.82007 C -19.16 23.78 -19.13 23.74 -19.09427 23.7079 C -19.06 23.67 -19.03 23.63 -18.99913 23.59807 C -18.97 23.56 -18.93 23.53 -18.90046 23.49066 C -18.87 23.46 -18.83 23.42 -18.79837 23.38573 C -18.76 23.35 -18.73 23.32 -18.69294 23.28334 C -18.66 23.25 -18.62 23.22 -18.58426 23.18354 C -18.55 23.15 -18.51 23.12 -18.47243 23.0864 C -18.43 23.05 -18.4 23.02 -18.35752 22.99194 C -18.32 22.96 -18.28 22.93 -18.23964 22.90024" />
    <path d="M -19.72156 24.6707 C -19.74 24.71 -19.76 24.74 -19.77159 24.77771 C -19.79 24.81 -19.8 24.85 -19.81861 24.88583 C -19.83 24.92 -19.85 24.96 -19.86258 24.99501 C -19.88 25.03 -19.89 25.07 -19.90346 25.10518 C -19.92 25.14 -19.93 25.18 -19.94121 25.21626 C -19.95 25.25 -19.96 25.29 -19.97579 25.32819 C -19.99 25.37 -20 25.4 -20.00719 25.44091 C -20.02 25.48 -20.03 25.52 -20.03536 25.55433 C -20.04 25.59 -20.05 25.63 -20.06028 25.66839 C -20.07 25.71 -20.08 25.74 -20.08193 25.78301 C -20.09 25.82 -20.09 25.86 -20.10029 25.89811 C -20.11 25.94 -20.11 25.98 -20.11533 26.01362 C -20.12 26.05 -20.12 26.09 -20.12705 26.12945 C -20.13 26.17 -20.13 26.21 -20.13543 26.24553 C -20.14 26.28 -20.14 26.32 -20.14046 26.36177 C -20.14 26.4 -20.14 26.44 -20.14214 26.47808" />
    <path d="M 6.00745 -18.88327 L 10.79537 -22.50652" />
    <path d="M -0.02694 -26.85737 L 7.58941 -32.62103" />
    <path d="M -15.13546 26.49302 C -15.13 26.49 -15.13 26.5 -15.13305 26.4978 C -15.13 26.5 -15.13 26.5 -15.1301 26.50322 C -15.13 26.51 -15.13 26.51 -15.12654 26.50931 C -15.13 26.51 -15.12 26.51 -15.12232 26.51606 C -15.12 26.52 -15.12 26.52 -15.11736 26.52349 C -15.12 26.53 -15.11 26.53 -15.1116 26.53157 C -15.11 26.53 -15.11 26.54 -15.10499 26.5403 C -15.1 26.54 -15.1 26.55 -15.09746 26.54966 C -15.1 26.55 -15.09 26.56 -15.08995 26.55848 C -15.09 26.56 -15.08 26.56 -15.08164 26.56776 C -15.08 26.57 -15.08 26.57 -15.07248 26.57747 C -15.07 26.58 -15.07 26.58 -15.06245 26.58759 C -15.06 26.59 -15.06 26.59 -15.05151 26.59807 C -15.05 26.6 -15.04 26.61 -15.03965 26.60889 C -15.04 26.61 -15.03 26.62 -15.02683 26.62001 C -15.02 26.62 -15.02 26.63 -15.01304 26.63139 C -15.01 26.64 -15 26.64 -14.99826 26.64299 C -14.99 26.65 -14.99 26.65 -14.9825 26.65477 C -14.98 26.66 -14.97 26.66 -14.96573 26.66669 C -14.96 26.67 -14.95 26.67 -14.94796 26.67871 C -14.94 26.68 -14.94 26.69 -14.92919 26.69077 C -14.92 26.69 -14.92 26.7 -14.90943 26.70283 C -14.9 26.71 -14.9 26.71 -14.88869 26.71485 C -14.88 26.72 -14.87 26.72 -14.86697 26.72676 C -14.85 26.73 -14.84 26.74 -14.82088 26.75012 C -14.8 26.76 -14.79 26.77 -14.77107 26.77263 C -14.74 26.79 -14.7 26.8 -14.66147 26.8138 C -14.58 26.84 -14.5 26.86 -14.41097 26.8736 C -14.23 26.9 -14.04 26.9 -13.86309 26.87197 C -13.61 26.83 -13.4 26.73 -13.28989 26.64595" />
    <path d="M 1.17872 -15.22913 L -1.93255 -12.87468" />
    <path d="M 34.42106 -49.12573 A 10 10 0 0 0 17.19145 -46.61208 A 10 10 0 1 0 34.42106 -49.12573 Z" />
</svg>