<svg version="1.1" xmlns="http://www.w3.org/2000/svg" viewBox="-66.000001 -53.987526620475634 132.000002 158.0883326005833" fill="none" stroke="black" stroke-width="0.6%" vector-effect="non-scaling-stroke">
    <path d="M -45.96194 3.43371 A 65 49.1948 360 0 1 3.65406 -10.89732" />
    <path d="M 14.64115 -9.71087 A 65 49.1948 360 0 1 65 38.21969 A 65 49.1948 360 0 1 -65 38.21969 A 65 49.1948 360 0 1 -45.96194 3.43371" />
    <path d="M -65 53.90601 A 65 49.1948 180 0 0 65 53.90601" />
    <path d="M -20.14214 27.51631 A 6 4.54106 180 0 0 -8.14214 27.51631" />
    <path d="M -20.06927 25.70624 L -27.93072 19.75636 L -27.93072 18.44917 L -19.72127 24.66243" />
    <path d="M 17.32412 33.13558 L 13.08148 36.34659 L 13.08148 33.73221 L 11.31371 -23.81502 A 5 2.31081 232.87999 0 1 10.79561 -22.504" />
    <path d="M 2.47487 28.31906 L 13.08148 36.34659" />
    <path d="M 20.85223 27.4137 A 5 3.78422 180 0 0 21.26346 25.9108" />
    <path d="M 17.32412 33.13558 L 20.85223 27.4137 L 20.85223 26.1065 A 5 3.78422 180 0 0 21.26346 24.60361 L 21.26346 25.9108" />
    <path d="M -24.39518 15.77332 L -16.28925 21.90824" />
    <path d="M -27.93072 18.44917 L -24.39518 15.77332" />
    <path d="M -8.14214 26.47055 A 6 4.54106 360 0 1 -20.14214 26.47055 L -20.14214 27.51631" />
    <path d="M -19.72159 24.66307 Q -19.72 24.66 -19.72127 24.66243" />
    <path d="M 15.9099 32.89873 L 15.9099 31.59153 L 14.14214 -25.9557 L 11.31371 -23.81502" />
    <path d="M 15.9099 32.89873 L 17.32412 31.82839 L 20.85223 26.1065" />
    <path d="M 17.32412 33.13558 L 17.32412 31.82839" />
    <path d="M 15.9099 31.59153 L 13.08148 33.73221" />
    <path d="M 2.47487 25.70468 L 2.47487 28.31906" />
    <path d="M 3.81744 -15.96851 L 2.47487 25.70468" />
    <path d="M 21.26346 24.60361 A 5 3.78422 180 0 0 15.79675 20.83591" />
    <path d="M -17.39483 23.09374 A 4.6 3.48148 360 1 1 -18.17902 23.88641 A 4.6 3.48148 360 0 1 -17.39483 23.09374 Z" />
    <path d="M -19.71845 24.65661 A 5.94164 4.49689 180 0 0 -19.72127 24.66243" />
    <path d="M 14.14214 -25.9557 A 5 2.31081 52.87999 0 0 13.40982 -28.50142" />
    <path d="M 9.88947 -32.37435 A 5 2.31081 52.87999 0 0 7.58917 -32.61841" />
    <path d="M 16.34297 25.83056 C 16.4 25.78 16.45 25.73 16.50874 25.68473 C 16.56 25.64 16.62 25.59 16.67381 25.53849 C 16.73 25.49 16.78 25.44 16.83821 25.39189 C 16.89 25.34 16.95 25.29 17.00199 25.24501 C 17.07 25.18 17.15 25.11 17.21874 25.04945 C 17.29 24.98 17.36 24.92 17.43455 24.8536 C 17.51 24.79 17.58 24.72 17.64949 24.65757 C 17.72 24.59 17.79 24.53 17.86363 24.46148 L 10.59287 11.70766" />
    <path d="M 17.09924 31.02564 A 2.25 1.7029 360 0 1 15.9099 32.52745" />
    <path d="M -12.44508 26.83992 A 2.4 1.81642 360 0 1 -16.24833 24.68468 A 2.4 1.81642 360 1 1 -12.44508 26.83992 Z" />
    <path d="M 15.72386 25.53508 A 2.25 1.7029 0 0 1 17.09924 27.10406 L 17.09924 31.02564" />
    <path d="M 17.09924 27.10406 A 2.25 1.7029 0 0 1 15.81925 28.64057" />
    <path d="M -15.13542 26.48566 A 1.05836 0.80101 360 1 1 -13.14885 26.48566 C -13.15 26.49 -13.15 26.49 -13.15132 26.4905 C -13.15 26.49 -13.15 26.49 -13.15433 26.49602 C -13.16 26.5 -13.16 26.5 -13.15795 26.50223 C -13.16 26.5 -13.16 26.51 -13.16226 26.50911 C -13.16 26.51 -13.17 26.51 -13.16733 26.51669 C -13.17 26.52 -13.17 26.52 -13.17323 26.52494 C -13.18 26.53 -13.18 26.53 -13.18002 26.53385 C -13.18 26.54 -13.19 26.54 -13.18777 26.5434 C -13.19 26.55 -13.19 26.55 -13.19652 26.55358 C -13.2 26.56 -13.2 26.56 -13.20633 26.56433 C -13.21 26.57 -13.21 26.57 -13.21725 26.57563 C -13.22 26.58 -13.23 26.58 -13.22933 26.58744 C -13.23 26.59 -13.24 26.6 -13.2426 26.5997 C -13.25 26.6 -13.25 26.61 -13.25711 26.61236 C -13.26 26.62 -13.27 26.62 -13.27288 26.62536 C -13.28 26.63 -13.28 26.63 -13.28996 26.63864" />
    <path d="M 1.64377 -17.1423 A 4 1.84865 52.87999 0 0 1.68362 -17.36268" />
    <path d="M -2.66219 -23.10471 A 4 1.84865 52.87999 0 0 -2.88511 -23.12622" />
    <path d="M 1.17895 -15.22571 A 5 2.31081 52.87999 0 0 -4.85591 -23.19944 L -7.96718 -20.8447 A 5 2.31081 232.87999 0 1 -1.93232 -12.87096 A 5 2.31081 232.87999 0 1 -8.48528 -19.53367 A 5 2.31081 232.87999 0 1 -7.96718 -20.8447" />
    <path d="M 5.38869 -17.15769 A 6 2.77298 52.87999 0 0 5.2271 -21.5941 L 20.82784 -34.76323" />
    <path d="M 1.98017 -25.69784 A 6 2.77298 52.87999 0 0 -1.85315 -26.72617" />
    <path d="M 1.69157 -18.91825 L 20.62924 -34.9042" />
    <path d="M 1.69157 -18.91825 L 5.2271 -21.5941" />
    <path d="M -5.48864 -12.85718 L -4.77372 -13.46067" />
    <path d="M 1.69157 -18.91825 A 6 2.77298 232.87999 0 1 1.85315 -14.48185 L 5.38869 -17.15769" />
    <path d="M 1.85315 -14.48185 A 6 2.77298 232.87999 0 1 0.02744 -14.35419" />
    <path d="M 17.45409 -38.75992 L -1.37029 -22.86959" />
    <path d="M -6.00743 -22.32792 A 6 2.77298 232.87999 0 1 -5.38869 -24.05033 L -1.85315 -26.72617" />
    <path d="M -5.38869 -24.05033 A 6 2.77298 232.87999 0 1 -1.37029 -22.86959" />
    <path d="M -7.92247 -17.33867 L -8.55051 -16.80852" />
    <path d="M -5.48864 -12.85718 A 2.75 1.27095 232.87999 0 1 -5.76503 -12.29816 L -4.70437 -13.10092 A 2.75 1.27095 52.87999 0 0 -4.53521 -13.29864" />
    <path d="M -5.76503 -12.29816 A 2.75 1.27095 232.87999 1 1 -9.08421 -16.68372 L -8.02355 -17.48647" />
    <path d="M -9.08421 -16.68372 A 2.75 1.27095 232.87999 0 1 -8.55051 -16.80852" />
    <path d="M -4.82 -23.22546 A 5 2.31081 232.87999 0 1 -4.7852 -23.25296 A 5 2.31081 232.87999 0 1 1.24967 -15.27922 A 5 2.31081 232.87999 0 1 1.21375 -15.2532" />
    <path d="M -5.48864 -12.85718 L -4.73103 -13.43057" />
    <path d="M -7.99649 -17.50577 A 2.75 1.27095 52.87999 0 0 -8.02355 -17.48647" />
    <path d="M -4.39902 -23.40396 A 5 2.31081 232.87999 0 1 -4.37558 -23.44646" />
    <path d="M 1.54715 -15.62089 A 5 2.31081 232.87999 0 1 1.49989 -15.60987" />
    <path d="M -65 38.21969 L -65 53.90601" />
    <path d="M 65 38.21969 L 65 53.90601" />
    <path d="M -8.14214 26.47055 L -8.14214 27.51631" />
    <path d="M -18.23971 22.89245 C -18.17 22.84 -18.1 22.79 -18.02698 22.73903 C -17.95 22.69 -17.88 22.64 -17.80593 22.59437 C -17.73 22.55 -17.65 22.5 -17.57707 22.4587 C -17.5 22.41 -17.42 22.37 -17.34091 22.33223 C -17.26 22.29 -17.18 22.25 -17.09795 22.21516 C -17.02 22.18 -16.93 22.14 -16.84873 22.10767 C -16.76 22.07 -16.68 22.04 -16.59378 22.00993 C -16.51 21.98 -16.42 21.95 -16.33364 21.92208 C -16.25 21.89 -16.16 21.87 -16.06886 21.84428 C -15.98 21.82 -15.89 21.8 -15.8 21.77663 C -15.71 21.76 -15.62 21.74 -15.52763 21.71925 C -15.44 21.7 -15.34 21.69 -15.25231 21.67223 C -15.16 21.66 -15.07 21.65 -14.97463 21.63565 C -14.88 21.63 -14.79 21.62 -14.69519 21.60957 C -14.6 21.6 -14.51 21.6 -14.41457 21.59403 C -14.32 21.59 -14.23 21.59 -14.1334 21.58908 C -14.04 21.59 -13.95 21.59 -13.85144 21.59472 C -13.76 21.6 -13.66 21.6 -13.57009 21.611 C -13.48 21.62 -13.38 21.63 -13.28995 21.63789 C -13.2 21.65 -13.1 21.66 -13.01163 21.67533 C -12.92 21.69 -12.83 21.71 -12.73573 21.72327 C -12.64 21.74 -12.55 21.76 -12.46283 21.78162 C -12.37 21.8 -12.28 21.83 -12.19352 21.85028 C -12.1 21.87 -12.02 21.9 -11.92835 21.92915 C -11.84 21.96 -11.75 21.99 -11.6679 22.01811 C -11.58 22.05 -11.5 22.08 -11.41271 22.11701 C -11.33 22.15 -11.25 22.19 -11.16333 22.2257 C -11.08 22.26 -11 22.3 -10.92031 22.34401 C -10.6 22.51 -10.3 22.7 -10.02216 22.9095 C -9.26 23.46 -8.2 24.63 -8.14214 26.47055" />
    <path d="M -19.71845 24.65661 C -19.7 24.61 -19.68 24.57 -19.65448 24.53018 C -19.63 24.49 -19.61 24.45 -19.58632 24.40553 C -19.56 24.36 -19.54 24.32 -19.51406 24.28276 C -19.49 24.24 -19.46 24.2 -19.43779 24.16195 C -19.41 24.12 -19.38 24.08 -19.35757 24.04319 C -19.33 24 -19.3 23.97 -19.2735 23.92656 C -19.24 23.89 -19.22 23.85 -19.18566 23.81213 C -19.16 23.77 -19.13 23.74 -19.09414 23.69998 C -19.06 23.66 -19.03 23.63 -18.99901 23.59017 C -18.97 23.55 -18.93 23.52 -18.90037 23.48278 C -18.87 23.45 -18.83 23.41 -18.7983 23.37787 C -18.76 23.34 -18.73 23.31 -18.69289 23.2755 C -18.66 23.24 -18.62 23.21 -18.58424 23.17572 C -18.55 23.14 -18.51 23.11 -18.47243 23.07859 C -18.43 23.05 -18.4 23.02 -18.35756 22.98415 C -18.32 22.95 -18.28 22.92 -18.23971 22.89245" />
    <path d="M -19.72159 24.66307 C -19.74 24.7 -19.76 24.73 -19.77161 24.77009 C -19.79 24.81 -19.8 24.84 -19.81863 24.87822 C -19.83 24.91 -19.85 24.95 -19.86259 24.98741 C -19.88 25.02 -19.89 25.06 -19.90347 25.09758 C -19.92 25.13 -19.93 25.17 -19.94122 25.20867 C -19.95 25.25 -19.96 25.28 -19.9758 25.32061 C -19.99 25.36 -20 25.4 -20.0072 25.43333 C -20.02 25.47 -20.03 25.51 -20.03537 25.54676 C -20.04 25.58 -20.05 25.62 -20.06029 25.66082 C -20.07 25.7 -20.08 25.74 -20.08194 25.77545 C -20.09 25.81 -20.09 25.85 -20.10029 25.89055 C -20.11 25.93 -20.11 25.97 -20.11534 26.00607 C -20.12 26.04 -20.12 26.08 -20.12705 26.1219 C -20.13 26.16 -20.13 26.2 -20.13543 26.23799 C -20.14 26.28 -20.14 26.32 -20.14046 26.35423 C -20.14 26.39 -20.14 26.43 -20.14214 26.47055" />
    <path d="M 6.00743 -18.8801 L 10.79561 -22.504" />
    <path d="M -0.02744 -26.85384 L 7.58917 -32.61841" />
    <path d="M -15.13542 26.48566 C -15.13 26.49 -15.13 26.49 -15.133 26.49044 C -15.13 26.49 -15.13 26.49 -15.13004 26.49587 C -15.13 26.5 -15.13 26.5 -15.12648 26.50197 C -15.13 26.5 -15.12 26.51 -15.12225 26.50874 C -15.12 26.51 -15.12 26.51 -15.11728 26.51618 C -15.12 26.52 -15.11 26.52 -15.11152 26.52427 C -15.11 26.53 -15.11 26.53 -15.10489 26.53302 C -15.1 26.54 -15.1 26.54 -15.09735 26.54239 C -15.09 26.55 -15.09 26.55 -15.08983 26.55122 C -15.09 26.55 -15.08 26.56 -15.0815 26.56051 C -15.08 26.56 -15.08 26.57 -15.07233 26.57023 C -15.07 26.57 -15.07 26.58 -15.06229 26.58036 C -15.06 26.58 -15.06 26.59 -15.05133 26.59086 C -15.05 26.59 -15.04 26.6 -15.03945 26.60169 C -15.04 26.61 -15.03 26.61 -15.02661 26.61282 C -15.02 26.62 -15.02 26.62 -15.0128 26.62421 C -15.01 26.63 -15 26.63 -14.99801 26.63582 C -14.99 26.64 -14.99 26.64 -14.98222 26.64761 C -14.98 26.65 -14.97 26.66 -14.96543 26.65954 C -14.96 26.66 -14.95 26.67 -14.94764 26.67156 C -14.94 26.68 -14.94 26.68 -14.92885 26.68363 C -14.92 26.69 -14.92 26.69 -14.90906 26.6957 C -14.9 26.7 -14.9 26.7 -14.88829 26.70772 C -14.88 26.71 -14.87 26.72 -14.86655 26.71965 C -14.85 26.73 -14.84 26.74 -14.82036 26.74304 C -14.8 26.75 -14.79 26.76 -14.77044 26.76557 C -14.74 26.78 -14.7 26.79 -14.66058 26.80677 C -14.58 26.83 -14.5 26.85 -14.40954 26.86652 C -14.23 26.89 -14.04 26.89 -13.86086 26.8643 C -13.61 26.83 -13.4 26.73 -13.28996 26.63864" />
    <path d="M 1.17895 -15.22571 L -1.93232 -12.87096" />
    <path d="M 34.42107 -49.11271 A 10.000000000000002 10.000000000000002 0 0 0 17.19221 -46.60104 A 10.000000000000002 10.000000000000002 0 1 0 34.42107 -49.11271 Z" />
</svg>