<svg version="1.1" xmlns="http://www.w3.org/2000/svg" viewBox="-50.9826964527677 -50.16752699392195 102.000002 132.44215263224146" fill="none" stroke="black" stroke-width="0.6%" vector-effect="non-scaling-stroke">
    <path d="M -33.57437 8.73967 A 47.5 31.97583 0 0 1 -14.97307 1.00547" />
    <path d="M -3.52612 -0.5395 A 47.5 31.97583 0 0 1 -3.51823 -0.5399" />
    <path d="M 15.23778 1.05743 A 47.5 31.97583 0 0 1 47.26247 28.03943 A 47.5 31.97583 0 1 1 -47.22786 28.03943 A 47.5 31.97583 0 0 1 -33.57437 8.73967" />
    <path d="M -49.71444 44.13396 A 50 33.65877 180 1 0 49.74905 44.13396" />
    <path d="M -15.89195 34.91859 L -5.28405 42.05782 L -2.45597 40.15356" />
    <path d="M 13.09848 29.68013 L 15.92656 27.77587 L 15.92656 26.29691 L 13.09848 28.20117 L 11.33049 -36.58423 A 5 2.61479 236.04605 0 1 10.58716 -34.81654" />
    <path d="M 13.09848 29.68013 L 8.68965 26.71295" />
    <path d="M -7.05204 -24.20654 L -5.28405 40.57886 L -2.45597 38.6746 L -2.45597 40.15356" />
    <path d="M -14.12397 -28.96603 A 5 2.61479 236.04605 0 1 -13.38063 -30.73372 A 5 2.61479 236.04605 0 1 -7.05204 -24.20654 L -4.22395 -26.1108 L -2.45597 38.6746" />
    <path d="M -15.89195 33.43963 L -14.12397 -28.96603" />
    <path d="M -15.89195 34.91859 L -15.89195 33.43963" />
    <path d="M -5.28405 40.57886 L -5.28405 42.05782" />
    <path d="M 14.15858 -38.48849 A 5 2.61479 56.04605 0 0 7.82998 -45.01567" />
    <path d="M 15.92656 26.29691 L 14.15858 -38.48849 L 11.33049 -36.58423" />
    <path d="M 13.09848 29.68013 L 13.09848 28.20117" />
    <path d="M 3.92086 -29.42368 L 3.55284 -16.43328" />
    <path d="M -2.80991 -27.06293 A 5 2.61479 56.04605 0 0 -9.13851 -33.59011 L -13.38063 -30.73372" />
    <path d="M -3.55325 -25.29524 A 5 2.61479 56.04605 0 0 -2.80991 -27.06293" />
    <path d="M 3.55284 -42.1349 A 5 2.61479 236.04605 0 1 3.58786 -42.15928 L 7.82998 -45.01567" />
    <path d="M 3.58786 -42.15928 A 5 2.61479 236.04605 0 1 9.17312 -33.86441 L 10.58716 -34.81654" />
    <path d="M 9.17312 -33.86441 A 5 2.61479 236.04605 0 1 5.89846 -34.67336" />
    <path d="M 4.98417 -40.08556 A 2.5 1.30739 236.04605 0 1 7.7768 -35.93813" />
    <path d="M -1.04279 -30.63313 A 2.5 1.30739 56.04605 0 0 -4.20709 -33.89672 L -5.86385 -32.78116" />
    <path d="M -1.41446 -29.74928 A 2.5 1.30739 56.04605 0 0 -1.04279 -30.63313" />
    <path d="M 0.01774 17.19676 A 9.68246 5.06351 56.04605 0 0 -3.10218 14.99518" />
    <path d="M 0.01774 17.19676 A 9.68246 5.06227 123.94099 0 1 3.55284 14.81644 L 3.55284 -29.17588" />
    <path d="M 4.99638 -30.14787 A 5.75 3.007 56.04605 0 0 3.55284 -37.55665 L 3.55284 -44.71209 A 2.75 1.43813 56.04605 0 0 0.24891 -49.03024" />
    <path d="M -3.51823 -25.31962 L -3.51823 -0.25044" />
    <path d="M -3.51823 -44.71151 L -3.51823 -37.55607" />
    <path d="M -5.39274 -33.09837 A 5.75 3.007 236.04605 0 1 -4.96177 -37.30665 L -3.51823 -38.27864" />
    <path d="M -4.96177 -37.30665 A 5.75 3.007 236.04605 0 1 -3.51823 -37.55607" />
    <path d="M 0.01774 17.19676 L 0.01774 -27.51812" />
    <path d="M 0.01774 -35.17633 A 5.75 3.007 236.04605 0 1 1.46128 -27.76755 L 4.99638 -30.14787" />
    <path d="M 1.46128 -27.76755 A 5.75 3.007 236.04605 0 1 0.01774 -27.51812" />
    <path d="M 0.01774 -35.17633 L 0.01774 -42.33177 L 1.07827 -43.04586 A 2.75 1.43813 56.04605 0 0 -2.22566 -47.36401" />
    <path d="M -3.51823 -44.71151 A 2.75 1.43813 236.04605 0 1 -3.28619 -46.64991 L -2.22566 -47.36401" />
    <path d="M -3.28619 -46.64991 A 2.75 1.43813 236.04605 0 1 0.01774 -42.33177" />
    <path d="M -1.75025 -36.23451 A 5 2.61479 236.04605 0 1 1.04239 -28.38966 A 5 2.61479 236.04605 0 1 -2.23228 -29.19861" />
    <path d="M -5.02491 -33.34605 A 5 2.61479 236.04605 0 1 -4.54288 -36.68453 A 5 2.61479 236.04605 0 1 -1.75025 -36.23451" />
    <path d="M 0.01774 -35.17633 L 3.55284 -37.55665" />
    <path d="M 2.49231 -43.99799 L 3.55284 -44.71209" />
    <path d="M 2.49231 -44.1057 L 2.49231 -43.99799" />
    <path d="M 2.49231 -44.1057 L 1.15924 -43.20809" />
    <path d="M 1.78529 -41.22631 A 0.75 0.39212 303.94099 0 0 1.36653 -40.04949 A 0.75 0.39212 303.94099 0 0 2.20404 -41.29391 A 0.75 0.39212 303.94099 0 0 1.78529 -41.22631 Z" />
    <path d="M -1.2198 -47.39625 A 2.75 1.43813 236.04605 0 1 -0.81162 -48.31614 L 0.24891 -49.03024" />
    <path d="M -0.81162 -48.31614 A 2.75 1.43813 236.04605 0 1 2.49231 -43.99799" />
    <path d="M 1.35855 -28.68316 A 5 2.61479 236.04605 0 1 -1.52526 -29.67468" />
    <path d="M -4.31789 -33.82211 A 5 2.61479 236.04605 0 1 -4.15203 -36.8671" />
    <path d="M -0.67199 -47.36928 A 2.5 1.30739 236.04605 0 1 2.49231 -44.1057" />
    <path d="M 0.98838 -32.28509 A 3 1.56887 236.04605 0 1 -0.95377 -35.16943" />
    <path d="M -1.04323 -30.79471 A 3 1.56887 56.04605 0 0 0.63235 -30.5247 A 3 1.56887 56.04605 0 0 -2.71881 -35.50162 A 3 1.56887 56.04605 0 0 -3.09723 -33.84006" />
    <path d="M -1.04954 -30.79897 A 3 1.56887 56.04605 0 0 -1.04323 -30.79471" />
    <path d="M -47.22786 28.03943 L -49.71444 44.13396" />
    <path d="M 47.26247 28.03943 L 49.74905 44.13396" />
    <path d="M -3.55325 -25.29524 L -4.19 -24.86649" />
    <path d="M -1.41446 -29.74928 L -3.07121 -28.63372" />
    <path d="M 5.42735 -34.35615 L 7.7768 -35.93813" />
    <path d="M 3.55284 -39.12179 L 4.98417 -40.08556" />
    <path d="M -2.65531 31.3702 A 10 10 0 0 0 3.55284 12.37981" />
    <path d="M -0.87552 -47.23224 L -0.67199 -47.36928" />
</svg>